<mxfile host="app.diagrams.net" modified="2023-08-07T12:37:55.583Z" agent="Mozilla/5.0 (Windows NT 10.0; Win64; x64) AppleWebKit/537.36 (KHTML, like Gecko) Chrome/115.0.0.0 Safari/537.36" etag="03J6_e_qHw7iDfoyI3k2" version="21.6.6" type="github" pages="3">
  <diagram id="SlWCSXc2fECgTnz2ipEf" name="Page-1">
    <mxGraphModel dx="1593" dy="842" grid="1" gridSize="10" guides="1" tooltips="1" connect="1" arrows="1" fold="1" page="1" pageScale="1" pageWidth="827" pageHeight="1169" math="0" shadow="0">
      <root>
        <mxCell id="0" />
        <mxCell id="1" parent="0" />
        <mxCell id="xj4J1R5NBg_zcZm-E7_H-9" value="" style="endArrow=open;startArrow=open;html=1;rounded=0;fontSize=18;startFill=0;endFill=0;strokeWidth=2;exitX=0.259;exitY=0.034;exitDx=0;exitDy=0;exitPerimeter=0;" parent="1" source="I-nP9aZHoyBL9vZ6uBWT-4" edge="1">
          <mxGeometry width="50" height="50" relative="1" as="geometry">
            <mxPoint x="405" y="240" as="sourcePoint" />
            <mxPoint x="405.30000000000007" y="155" as="targetPoint" />
          </mxGeometry>
        </mxCell>
        <mxCell id="xj4J1R5NBg_zcZm-E7_H-3" value="&lt;div style=&quot;font-size: 12px;&quot;&gt;Модули управления&lt;/div&gt;" style="rounded=1;whiteSpace=wrap;html=1;fontSize=12;align=center;verticalAlign=top;dashed=1;" parent="1" vertex="1">
          <mxGeometry x="298" y="16" width="140" height="118" as="geometry" />
        </mxCell>
        <mxCell id="I-nP9aZHoyBL9vZ6uBWT-55" value="" style="endArrow=open;startArrow=open;html=1;rounded=0;fontSize=18;startFill=0;endFill=0;strokeWidth=2;" parent="1" edge="1">
          <mxGeometry width="50" height="50" relative="1" as="geometry">
            <mxPoint x="789" y="231" as="sourcePoint" />
            <mxPoint x="789" y="137" as="targetPoint" />
          </mxGeometry>
        </mxCell>
        <mxCell id="I-nP9aZHoyBL9vZ6uBWT-48" value="" style="endArrow=open;startArrow=open;html=1;rounded=0;fontSize=18;startFill=0;endFill=0;strokeWidth=2;" parent="1" edge="1">
          <mxGeometry width="50" height="50" relative="1" as="geometry">
            <mxPoint x="337.95000000000005" y="300" as="sourcePoint" />
            <mxPoint x="337.95000000000005" y="210" as="targetPoint" />
          </mxGeometry>
        </mxCell>
        <mxCell id="I-nP9aZHoyBL9vZ6uBWT-50" value="" style="endArrow=open;startArrow=open;html=1;rounded=0;fontSize=18;startFill=0;endFill=0;strokeWidth=2;" parent="1" edge="1">
          <mxGeometry width="50" height="50" relative="1" as="geometry">
            <mxPoint x="547.8600000000001" y="300" as="sourcePoint" />
            <mxPoint x="547.8600000000001" y="210" as="targetPoint" />
          </mxGeometry>
        </mxCell>
        <mxCell id="I-nP9aZHoyBL9vZ6uBWT-52" value="" style="endArrow=open;startArrow=open;html=1;rounded=0;fontSize=18;startFill=0;endFill=0;strokeWidth=2;" parent="1" edge="1">
          <mxGeometry width="50" height="50" relative="1" as="geometry">
            <mxPoint x="690" y="300" as="sourcePoint" />
            <mxPoint x="690" y="210" as="targetPoint" />
          </mxGeometry>
        </mxCell>
        <mxCell id="I-nP9aZHoyBL9vZ6uBWT-29" value="Конфигурация модулей&lt;br&gt;(XML)" style="shape=cylinder3;whiteSpace=wrap;html=1;boundedLbl=1;backgroundOutline=1;size=7.620689655172384;fontSize=10;strokeColor=#000000;fontColor=#000000;" parent="1" vertex="1">
          <mxGeometry x="120" y="483" width="80" height="70" as="geometry" />
        </mxCell>
        <mxCell id="I-nP9aZHoyBL9vZ6uBWT-6" value="Само-&lt;br&gt;диагностика&lt;br&gt;системы" style="rounded=1;whiteSpace=wrap;html=1;fontSize=11;" parent="1" vertex="1">
          <mxGeometry x="719" y="56" width="91" height="60" as="geometry" />
        </mxCell>
        <mxCell id="I-nP9aZHoyBL9vZ6uBWT-7" value="&lt;font style=&quot;font-size: 11px;&quot;&gt;Data&lt;/font&gt;" style="rounded=1;whiteSpace=wrap;html=1;" parent="1" vertex="1">
          <mxGeometry x="719" y="119" width="40" height="15" as="geometry" />
        </mxCell>
        <mxCell id="I-nP9aZHoyBL9vZ6uBWT-8" value="&lt;font style=&quot;font-size: 11px;&quot;&gt;Msg&lt;/font&gt;" style="rounded=1;whiteSpace=wrap;html=1;" parent="1" vertex="1">
          <mxGeometry x="769" y="119" width="40" height="15" as="geometry" />
        </mxCell>
        <mxCell id="I-nP9aZHoyBL9vZ6uBWT-9" value="Облако" style="ellipse;shape=cloud;whiteSpace=wrap;html=1;fontSize=18;" parent="1" vertex="1">
          <mxGeometry y="44" width="180" height="90" as="geometry" />
        </mxCell>
        <mxCell id="I-nP9aZHoyBL9vZ6uBWT-10" value="&lt;font style=&quot;font-size: 11px;&quot;&gt;Data&lt;/font&gt;" style="rounded=1;whiteSpace=wrap;html=1;" parent="1" vertex="1">
          <mxGeometry x="670.5" y="302" width="40" height="15" as="geometry" />
        </mxCell>
        <mxCell id="I-nP9aZHoyBL9vZ6uBWT-11" value="&lt;font style=&quot;font-size: 11px;&quot;&gt;Msg&lt;/font&gt;" style="rounded=1;whiteSpace=wrap;html=1;" parent="1" vertex="1">
          <mxGeometry x="733.5" y="302" width="40" height="15" as="geometry" />
        </mxCell>
        <mxCell id="I-nP9aZHoyBL9vZ6uBWT-12" value="&lt;div style=&quot;&quot;&gt;&lt;span style=&quot;background-color: initial;&quot;&gt;&lt;font style=&quot;font-size: 12px;&quot;&gt;Системные модули&lt;/font&gt;&lt;/span&gt;&lt;br&gt;&lt;/div&gt;" style="rounded=1;whiteSpace=wrap;html=1;fontSize=11;align=center;verticalAlign=top;dashed=1;" parent="1" vertex="1">
          <mxGeometry x="662" y="322" width="120" height="320" as="geometry" />
        </mxCell>
        <mxCell id="I-nP9aZHoyBL9vZ6uBWT-13" value="SCLK - модуль переводящий внутренние часы" style="rounded=1;whiteSpace=wrap;html=1;fontSize=12;" parent="1" vertex="1">
          <mxGeometry x="670.5" y="372" width="103" height="70" as="geometry" />
        </mxCell>
        <mxCell id="I-nP9aZHoyBL9vZ6uBWT-14" value="SSSW - модуль для работы с состоянием системы" style="rounded=1;whiteSpace=wrap;html=1;fontSize=12;" parent="1" vertex="1">
          <mxGeometry x="670.5" y="457" width="103" height="70" as="geometry" />
        </mxCell>
        <mxCell id="I-nP9aZHoyBL9vZ6uBWT-15" value="&lt;font style=&quot;font-size: 11px;&quot;&gt;Data&lt;/font&gt;" style="rounded=1;whiteSpace=wrap;html=1;" parent="1" vertex="1">
          <mxGeometry x="528.5" y="302" width="40" height="15" as="geometry" />
        </mxCell>
        <mxCell id="I-nP9aZHoyBL9vZ6uBWT-16" value="&lt;font style=&quot;font-size: 11px;&quot;&gt;Msg&lt;/font&gt;" style="rounded=1;whiteSpace=wrap;html=1;" parent="1" vertex="1">
          <mxGeometry x="591.5" y="302" width="40" height="15" as="geometry" />
        </mxCell>
        <mxCell id="I-nP9aZHoyBL9vZ6uBWT-17" value="&lt;div style=&quot;&quot;&gt;&lt;span style=&quot;background-color: initial;&quot;&gt;&lt;font style=&quot;font-size: 12px;&quot;&gt;Модули аналитики&lt;/font&gt;&lt;/span&gt;&lt;br&gt;&lt;/div&gt;" style="rounded=1;whiteSpace=wrap;html=1;fontSize=11;align=center;verticalAlign=top;dashed=1;" parent="1" vertex="1">
          <mxGeometry x="520" y="322" width="120" height="320" as="geometry" />
        </mxCell>
        <mxCell id="I-nP9aZHoyBL9vZ6uBWT-18" value="Модуль расчёта доп. метрик (Python)" style="rounded=1;whiteSpace=wrap;html=1;fontSize=12;" parent="1" vertex="1">
          <mxGeometry x="528.5" y="372" width="103" height="70" as="geometry" />
        </mxCell>
        <mxCell id="I-nP9aZHoyBL9vZ6uBWT-19" value="Журналирование событий (модуль ALOG)" style="rounded=1;whiteSpace=wrap;html=1;fontSize=12;" parent="1" vertex="1">
          <mxGeometry x="528.5" y="457" width="103" height="70" as="geometry" />
        </mxCell>
        <mxCell id="I-nP9aZHoyBL9vZ6uBWT-20" value="Расчёт промежуточных метрик (модуль ARCL)" style="rounded=1;whiteSpace=wrap;html=1;fontSize=12;" parent="1" vertex="1">
          <mxGeometry x="528.5" y="542" width="103" height="70" as="geometry" />
        </mxCell>
        <mxCell id="I-nP9aZHoyBL9vZ6uBWT-21" value="&lt;font style=&quot;font-size: 11px;&quot;&gt;Data&lt;/font&gt;" style="rounded=1;whiteSpace=wrap;html=1;" parent="1" vertex="1">
          <mxGeometry x="318" y="302" width="40" height="15" as="geometry" />
        </mxCell>
        <mxCell id="I-nP9aZHoyBL9vZ6uBWT-22" value="&lt;font style=&quot;font-size: 11px;&quot;&gt;Msg&lt;/font&gt;" style="rounded=1;whiteSpace=wrap;html=1;" parent="1" vertex="1">
          <mxGeometry x="398" y="302" width="40" height="15" as="geometry" />
        </mxCell>
        <mxCell id="I-nP9aZHoyBL9vZ6uBWT-23" value="&lt;div style=&quot;font-size: 12px;&quot;&gt;Коммуникационные модули&lt;/div&gt;" style="rounded=1;whiteSpace=wrap;html=1;fontSize=12;align=center;verticalAlign=top;dashed=1;" parent="1" vertex="1">
          <mxGeometry x="268" y="322" width="230" height="228" as="geometry" />
        </mxCell>
        <mxCell id="xj4J1R5NBg_zcZm-E7_H-2" style="edgeStyle=orthogonalEdgeStyle;rounded=0;orthogonalLoop=1;jettySize=auto;html=1;dashed=1;dashPattern=1 1;strokeWidth=2;" parent="1" target="I-nP9aZHoyBL9vZ6uBWT-24" edge="1">
          <mxGeometry relative="1" as="geometry">
            <mxPoint x="329.5" y="590" as="sourcePoint" />
          </mxGeometry>
        </mxCell>
        <mxCell id="I-nP9aZHoyBL9vZ6uBWT-24" value="HTTP-клиент&lt;br&gt;(IHTC)" style="rounded=1;whiteSpace=wrap;html=1;fontSize=12;" parent="1" vertex="1">
          <mxGeometry x="278" y="457" width="103" height="70" as="geometry" />
        </mxCell>
        <mxCell id="I-nP9aZHoyBL9vZ6uBWT-28" value="Модели энергосистемы&lt;br&gt;(CIM XML)" style="shape=cylinder3;whiteSpace=wrap;html=1;boundedLbl=1;backgroundOutline=1;size=7.620689655172384;fontSize=10;strokeColor=#000000;fontColor=#000000;" parent="1" vertex="1">
          <mxGeometry x="120" y="417" width="80" height="70" as="geometry" />
        </mxCell>
        <mxCell id="I-nP9aZHoyBL9vZ6uBWT-27" value="Архивы измерений, прогнозы, стратегии, метрики&lt;br&gt;(MongoDB)" style="shape=cylinder3;whiteSpace=wrap;html=1;boundedLbl=1;backgroundOutline=1;size=7.620689655172384;fontSize=10;strokeColor=#000000;fontColor=#000000;" parent="1" vertex="1">
          <mxGeometry x="120" y="322" width="80" height="100" as="geometry" />
        </mxCell>
        <mxCell id="I-nP9aZHoyBL9vZ6uBWT-30" value="HTTP-сервер (IHTS)" style="rounded=1;whiteSpace=wrap;html=1;fontSize=12;" parent="1" vertex="1">
          <mxGeometry x="386.5" y="457" width="103" height="70" as="geometry" />
        </mxCell>
        <mxCell id="I-nP9aZHoyBL9vZ6uBWT-31" value="Модуль управления&lt;br&gt;(CBER)" style="rounded=1;whiteSpace=wrap;html=1;fontSize=12;" parent="1" vertex="1">
          <mxGeometry x="318" y="46" width="103" height="70" as="geometry" />
        </mxCell>
        <mxCell id="I-nP9aZHoyBL9vZ6uBWT-33" value="Связь с оборудованием по Modbus TCP (IMDB)" style="rounded=1;whiteSpace=wrap;html=1;fontSize=12;" parent="1" vertex="1">
          <mxGeometry x="278" y="372" width="103" height="70" as="geometry" />
        </mxCell>
        <mxCell id="I-nP9aZHoyBL9vZ6uBWT-34" value="Модуль загрузки данных в &lt;br&gt;систему (IDFL)" style="rounded=1;whiteSpace=wrap;html=1;fontSize=12;" parent="1" vertex="1">
          <mxGeometry x="386.5" y="372" width="103" height="70" as="geometry" />
        </mxCell>
        <mxCell id="I-nP9aZHoyBL9vZ6uBWT-36" value="" style="group" parent="1" vertex="1" connectable="0">
          <mxGeometry x="260" y="236" width="560" height="20" as="geometry" />
        </mxCell>
        <mxCell id="I-nP9aZHoyBL9vZ6uBWT-4" value="Контроллер (Event Manager)" style="rounded=1;whiteSpace=wrap;html=1;" parent="I-nP9aZHoyBL9vZ6uBWT-36" vertex="1">
          <mxGeometry width="559.9999999999999" height="20" as="geometry" />
        </mxCell>
        <mxCell id="I-nP9aZHoyBL9vZ6uBWT-5" value="&lt;font style=&quot;font-size: 11px;&quot;&gt;Msg&lt;/font&gt;" style="rounded=1;whiteSpace=wrap;html=1;" parent="I-nP9aZHoyBL9vZ6uBWT-36" vertex="1">
          <mxGeometry x="515.4074074074075" y="2.5" width="41.48148148148148" height="15" as="geometry" />
        </mxCell>
        <mxCell id="I-nP9aZHoyBL9vZ6uBWT-37" value="" style="group;fillColor=#FFFFFF;strokeColor=#219FFF;" parent="1" vertex="1" connectable="0">
          <mxGeometry x="200" y="188" width="560" height="20" as="geometry" />
        </mxCell>
        <mxCell id="I-nP9aZHoyBL9vZ6uBWT-1" value="Репозиторий (Repository)" style="rounded=1;whiteSpace=wrap;html=1;" parent="I-nP9aZHoyBL9vZ6uBWT-37" vertex="1">
          <mxGeometry width="560" height="20" as="geometry" />
        </mxCell>
        <mxCell id="I-nP9aZHoyBL9vZ6uBWT-3" value="&lt;font style=&quot;font-size: 11px;&quot;&gt;Data&lt;/font&gt;" style="rounded=1;whiteSpace=wrap;html=1;" parent="I-nP9aZHoyBL9vZ6uBWT-37" vertex="1">
          <mxGeometry x="515.4074074074074" y="2.5" width="41.48148148148148" height="15" as="geometry" />
        </mxCell>
        <mxCell id="I-nP9aZHoyBL9vZ6uBWT-38" value="" style="endArrow=open;startArrow=open;html=1;rounded=0;fontSize=18;strokeWidth=2;startFill=0;endFill=0;" parent="1" edge="1">
          <mxGeometry width="50" height="50" relative="1" as="geometry">
            <mxPoint x="754" y="300" as="sourcePoint" />
            <mxPoint x="754" y="260" as="targetPoint" />
          </mxGeometry>
        </mxCell>
        <mxCell id="I-nP9aZHoyBL9vZ6uBWT-42" value="" style="endArrow=open;startArrow=open;html=1;rounded=0;fontSize=18;entryX=0;entryY=0.597;entryDx=0;entryDy=0;entryPerimeter=0;startFill=0;endFill=0;strokeWidth=2;fillColor=#dae8fc;strokeColor=#000000;fontColor=#000000;" parent="1" target="I-nP9aZHoyBL9vZ6uBWT-1" edge="1">
          <mxGeometry width="50" height="50" relative="1" as="geometry">
            <mxPoint x="160" y="300" as="sourcePoint" />
            <mxPoint x="190" y="200" as="targetPoint" />
            <Array as="points">
              <mxPoint x="160" y="200" />
            </Array>
          </mxGeometry>
        </mxCell>
        <mxCell id="I-nP9aZHoyBL9vZ6uBWT-47" value="&lt;font style=&quot;font-size: 11px;&quot;&gt;Data&lt;/font&gt;" style="rounded=1;whiteSpace=wrap;html=1;fillColor=#FFFFFF;strokeColor=#000000;fontColor=#000000;" parent="1" vertex="1">
          <mxGeometry x="140" y="302" width="40" height="15" as="geometry" />
        </mxCell>
        <mxCell id="I-nP9aZHoyBL9vZ6uBWT-49" value="" style="endArrow=open;startArrow=open;html=1;rounded=0;fontSize=18;startFill=0;endFill=0;strokeWidth=2;" parent="1" edge="1">
          <mxGeometry width="50" height="50" relative="1" as="geometry">
            <mxPoint x="418.9999999999999" y="300" as="sourcePoint" />
            <mxPoint x="418.9999999999999" y="260" as="targetPoint" />
          </mxGeometry>
        </mxCell>
        <mxCell id="I-nP9aZHoyBL9vZ6uBWT-51" value="" style="endArrow=open;startArrow=open;html=1;rounded=0;fontSize=18;startFill=0;endFill=0;strokeWidth=2;" parent="1" edge="1">
          <mxGeometry width="50" height="50" relative="1" as="geometry">
            <mxPoint x="611.3800000000001" y="300" as="sourcePoint" />
            <mxPoint x="611.3800000000001" y="260" as="targetPoint" />
          </mxGeometry>
        </mxCell>
        <mxCell id="I-nP9aZHoyBL9vZ6uBWT-54" value="" style="endArrow=open;startArrow=open;html=1;rounded=0;fontSize=18;startFill=0;endFill=0;strokeWidth=2;" parent="1" edge="1">
          <mxGeometry width="50" height="50" relative="1" as="geometry">
            <mxPoint x="739" y="185" as="sourcePoint" />
            <mxPoint x="738.83" y="137" as="targetPoint" />
          </mxGeometry>
        </mxCell>
        <mxCell id="I-nP9aZHoyBL9vZ6uBWT-59" value="" style="endArrow=none;startArrow=none;html=1;rounded=0;fontSize=18;fontColor=#000000;strokeColor=#000000;strokeWidth=2;entryX=0.55;entryY=0.95;entryDx=0;entryDy=0;entryPerimeter=0;startFill=0;endFill=0;endSize=11;startSize=11;dashed=1;dashPattern=1 1;" parent="1" target="I-nP9aZHoyBL9vZ6uBWT-9" edge="1">
          <mxGeometry width="50" height="50" relative="1" as="geometry">
            <mxPoint x="330" y="590" as="sourcePoint" />
            <mxPoint x="230" y="280" as="targetPoint" />
            <Array as="points">
              <mxPoint x="100" y="590" />
            </Array>
          </mxGeometry>
        </mxCell>
        <mxCell id="xj4J1R5NBg_zcZm-E7_H-6" value="&lt;span style=&quot;font-size: 11px;&quot;&gt;Data&lt;/span&gt;" style="rounded=1;whiteSpace=wrap;html=1;" parent="1" vertex="1">
          <mxGeometry x="330" y="140" width="40" height="15" as="geometry" />
        </mxCell>
        <mxCell id="xj4J1R5NBg_zcZm-E7_H-7" value="" style="endArrow=open;startArrow=open;html=1;rounded=0;fontSize=18;startFill=0;endFill=0;strokeWidth=2;entryX=0.5;entryY=1;entryDx=0;entryDy=0;exitX=0.268;exitY=-0.035;exitDx=0;exitDy=0;exitPerimeter=0;" parent="1" source="I-nP9aZHoyBL9vZ6uBWT-1" target="xj4J1R5NBg_zcZm-E7_H-6" edge="1">
          <mxGeometry width="50" height="50" relative="1" as="geometry">
            <mxPoint x="350" y="184" as="sourcePoint" />
            <mxPoint x="349.8" y="159" as="targetPoint" />
          </mxGeometry>
        </mxCell>
        <mxCell id="xj4J1R5NBg_zcZm-E7_H-8" value="&lt;font style=&quot;font-size: 11px;&quot;&gt;Msg&lt;/font&gt;" style="rounded=1;whiteSpace=wrap;html=1;" parent="1" vertex="1">
          <mxGeometry x="385.5" y="139" width="40" height="15" as="geometry" />
        </mxCell>
        <mxCell id="nFVWmPyeKjDzNU24tWSx-2" value="Modbus Exporter" style="rounded=1;whiteSpace=wrap;html=1;fillColor=none;align=right;horizontal=1;verticalAlign=top;" parent="1" vertex="1">
          <mxGeometry x="240" y="740" width="290" height="180" as="geometry" />
        </mxCell>
        <mxCell id="nFVWmPyeKjDzNU24tWSx-1" value="Режим накопителя (10064)" style="rounded=1;whiteSpace=wrap;html=1;" parent="1" vertex="1">
          <mxGeometry x="260" y="770" width="120" height="60" as="geometry" />
        </mxCell>
        <mxCell id="nFVWmPyeKjDzNU24tWSx-3" value="Уставка активной мощности (40064)" style="rounded=1;whiteSpace=wrap;html=1;" parent="1" vertex="1">
          <mxGeometry x="260" y="840" width="120" height="60" as="geometry" />
        </mxCell>
        <mxCell id="nFVWmPyeKjDzNU24tWSx-8" style="edgeStyle=orthogonalEdgeStyle;rounded=0;orthogonalLoop=1;jettySize=auto;html=1;entryX=0.011;entryY=0.579;entryDx=0;entryDy=0;entryPerimeter=0;fontSize=7;" parent="1" source="nFVWmPyeKjDzNU24tWSx-4" target="nFVWmPyeKjDzNU24tWSx-7" edge="1">
          <mxGeometry relative="1" as="geometry" />
        </mxCell>
        <mxCell id="nFVWmPyeKjDzNU24tWSx-4" value="Уставка режима накопителя (40080)" style="rounded=1;whiteSpace=wrap;html=1;" parent="1" vertex="1">
          <mxGeometry x="398" y="840" width="120" height="60" as="geometry" />
        </mxCell>
        <mxCell id="nFVWmPyeKjDzNU24tWSx-6" style="edgeStyle=orthogonalEdgeStyle;rounded=0;orthogonalLoop=1;jettySize=auto;html=1;fontSize=7;" parent="1" source="nFVWmPyeKjDzNU24tWSx-5" target="nFVWmPyeKjDzNU24tWSx-1" edge="1">
          <mxGeometry relative="1" as="geometry" />
        </mxCell>
        <mxCell id="nFVWmPyeKjDzNU24tWSx-5" value="&quot;/energyStoragingUnit[MRID=&#39;_ESS_01&#39;]/status/&lt;br style=&quot;font-size: 7px;&quot;&gt;addResources/&lt;br style=&quot;font-size: 7px;&quot;&gt;addResource[purposeKey=&#39;TMMM&#39;]" style="rounded=1;whiteSpace=wrap;html=1;fontSize=7;" parent="1" vertex="1">
          <mxGeometry x="50" y="765" width="160" height="70" as="geometry" />
        </mxCell>
        <mxCell id="nFVWmPyeKjDzNU24tWSx-7" value="Grafana" style="rounded=1;whiteSpace=wrap;html=1;" parent="1" vertex="1">
          <mxGeometry x="613.5" y="800" width="120" height="60" as="geometry" />
        </mxCell>
        <mxCell id="nFVWmPyeKjDzNU24tWSx-10" style="edgeStyle=orthogonalEdgeStyle;rounded=0;orthogonalLoop=1;jettySize=auto;html=1;fontSize=7;startArrow=classic;startFill=1;" parent="1" source="nFVWmPyeKjDzNU24tWSx-9" target="nFVWmPyeKjDzNU24tWSx-1" edge="1">
          <mxGeometry relative="1" as="geometry" />
        </mxCell>
        <mxCell id="nFVWmPyeKjDzNU24tWSx-9" value="cfg.EESSmode" style="rounded=1;whiteSpace=wrap;html=1;" parent="1" vertex="1">
          <mxGeometry x="290" y="642" width="120" height="60" as="geometry" />
        </mxCell>
        <mxCell id="nFVWmPyeKjDzNU24tWSx-12" style="edgeStyle=orthogonalEdgeStyle;rounded=0;orthogonalLoop=1;jettySize=auto;html=1;fontSize=7;startArrow=classic;startFill=1;" parent="1" source="nFVWmPyeKjDzNU24tWSx-11" target="nFVWmPyeKjDzNU24tWSx-4" edge="1">
          <mxGeometry relative="1" as="geometry" />
        </mxCell>
        <mxCell id="nFVWmPyeKjDzNU24tWSx-13" style="edgeStyle=orthogonalEdgeStyle;rounded=0;orthogonalLoop=1;jettySize=auto;html=1;fontSize=7;startArrow=classic;startFill=1;exitX=0;exitY=0.5;exitDx=0;exitDy=0;entryX=0;entryY=0.75;entryDx=0;entryDy=0;" parent="1" source="nFVWmPyeKjDzNU24tWSx-11" target="nFVWmPyeKjDzNU24tWSx-1" edge="1">
          <mxGeometry relative="1" as="geometry" />
        </mxCell>
        <mxCell id="nFVWmPyeKjDzNU24tWSx-11" value="Modpoll" style="rounded=1;whiteSpace=wrap;html=1;fontSize=15;" parent="1" vertex="1">
          <mxGeometry x="254" y="980" width="160" height="70" as="geometry" />
        </mxCell>
        <mxCell id="nFVWmPyeKjDzNU24tWSx-14" value="Меняется от 0 до 4" style="text;html=1;strokeColor=none;fillColor=none;align=center;verticalAlign=middle;whiteSpace=wrap;rounded=0;fontSize=15;" parent="1" vertex="1">
          <mxGeometry x="554" y="900" width="60" height="30" as="geometry" />
        </mxCell>
        <mxCell id="nFVWmPyeKjDzNU24tWSx-15" value="Меняется от 0 до 1" style="text;html=1;strokeColor=none;fillColor=none;align=center;verticalAlign=middle;whiteSpace=wrap;rounded=0;fontSize=15;" parent="1" vertex="1">
          <mxGeometry x="194" y="690" width="60" height="30" as="geometry" />
        </mxCell>
      </root>
    </mxGraphModel>
  </diagram>
  <diagram id="GxzJ7yJFFQ2lSm_bhfC4" name="CBER">
    <mxGraphModel dx="4947" dy="3266" grid="1" gridSize="10" guides="1" tooltips="1" connect="1" arrows="1" fold="1" page="1" pageScale="1" pageWidth="850" pageHeight="1100" math="0" shadow="0">
      <root>
        <mxCell id="0" />
        <mxCell id="1" parent="0" />
        <mxCell id="YqRIpTQ3Ia5iSlT-0wYB-1" style="edgeStyle=orthogonalEdgeStyle;rounded=0;orthogonalLoop=1;jettySize=auto;html=1;entryX=0.5;entryY=0;entryDx=0;entryDy=0;fontSize=16;exitX=0;exitY=0.75;exitDx=0;exitDy=0;startArrow=classic;startFill=1;" edge="1" parent="1" source="YqRIpTQ3Ia5iSlT-0wYB-5" target="YqRIpTQ3Ia5iSlT-0wYB-6">
          <mxGeometry relative="1" as="geometry" />
        </mxCell>
        <mxCell id="YqRIpTQ3Ia5iSlT-0wYB-2" value="рег. &lt;i&gt;U&lt;/i&gt;, &lt;i&gt;f, распр нагр&lt;/i&gt;" style="edgeLabel;html=1;align=center;verticalAlign=middle;resizable=0;points=[];fontSize=10;" vertex="1" connectable="0" parent="YqRIpTQ3Ia5iSlT-0wYB-1">
          <mxGeometry x="0.1655" relative="1" as="geometry">
            <mxPoint as="offset" />
          </mxGeometry>
        </mxCell>
        <mxCell id="YqRIpTQ3Ia5iSlT-0wYB-3" style="edgeStyle=orthogonalEdgeStyle;rounded=0;orthogonalLoop=1;jettySize=auto;html=1;entryX=0.5;entryY=0;entryDx=0;entryDy=0;fontSize=16;startArrow=classic;startFill=1;" edge="1" parent="1" source="YqRIpTQ3Ia5iSlT-0wYB-20" target="YqRIpTQ3Ia5iSlT-0wYB-7">
          <mxGeometry relative="1" as="geometry" />
        </mxCell>
        <mxCell id="YqRIpTQ3Ia5iSlT-0wYB-4" style="edgeStyle=orthogonalEdgeStyle;rounded=0;orthogonalLoop=1;jettySize=auto;html=1;entryX=0.5;entryY=0;entryDx=0;entryDy=0;fontSize=16;exitX=0.5;exitY=1;exitDx=0;exitDy=0;startArrow=classic;startFill=1;" edge="1" parent="1" source="YqRIpTQ3Ia5iSlT-0wYB-24" target="YqRIpTQ3Ia5iSlT-0wYB-8">
          <mxGeometry relative="1" as="geometry" />
        </mxCell>
        <mxCell id="YqRIpTQ3Ia5iSlT-0wYB-5" value="АСУ ТП" style="rounded=0;whiteSpace=wrap;html=1;fontSize=16;" vertex="1" parent="1">
          <mxGeometry x="145" y="230" width="170" height="60" as="geometry" />
        </mxCell>
        <mxCell id="YqRIpTQ3Ia5iSlT-0wYB-6" value="&lt;font style=&quot;font-size: 17px;&quot;&gt;ДЭС-2 (3 ДГУ)&lt;br&gt;&lt;/font&gt;" style="rounded=0;whiteSpace=wrap;html=1;" vertex="1" parent="1">
          <mxGeometry x="-50" y="535" width="140" height="50" as="geometry" />
        </mxCell>
        <mxCell id="YqRIpTQ3Ia5iSlT-0wYB-7" value="&lt;font style=&quot;font-size: 17px;&quot;&gt;МГЭС-1,2,3 (около 2 МВт)&lt;/font&gt;" style="rounded=0;whiteSpace=wrap;html=1;" vertex="1" parent="1">
          <mxGeometry x="290" y="535" width="140" height="50" as="geometry" />
        </mxCell>
        <mxCell id="YqRIpTQ3Ia5iSlT-0wYB-8" value="&lt;font style=&quot;font-size: 17px;&quot;&gt;ВЭС (2,4 МВт)&lt;/font&gt;" style="rounded=0;whiteSpace=wrap;html=1;" vertex="1" parent="1">
          <mxGeometry x="460" y="535" width="140" height="50" as="geometry" />
        </mxCell>
        <mxCell id="YqRIpTQ3Ia5iSlT-0wYB-9" style="edgeStyle=orthogonalEdgeStyle;rounded=0;orthogonalLoop=1;jettySize=auto;html=1;entryX=0.5;entryY=0;entryDx=0;entryDy=0;fontSize=10;startArrow=classic;startFill=1;exitX=0.5;exitY=1;exitDx=0;exitDy=0;" edge="1" parent="1" source="YqRIpTQ3Ia5iSlT-0wYB-15" target="YqRIpTQ3Ia5iSlT-0wYB-5">
          <mxGeometry relative="1" as="geometry" />
        </mxCell>
        <mxCell id="YqRIpTQ3Ia5iSlT-0wYB-10" style="edgeStyle=orthogonalEdgeStyle;rounded=0;orthogonalLoop=1;jettySize=auto;html=1;entryX=0.5;entryY=0;entryDx=0;entryDy=0;fontSize=10;startArrow=classic;startFill=1;" edge="1" parent="1" source="YqRIpTQ3Ia5iSlT-0wYB-11" target="YqRIpTQ3Ia5iSlT-0wYB-15">
          <mxGeometry relative="1" as="geometry" />
        </mxCell>
        <mxCell id="YqRIpTQ3Ia5iSlT-0wYB-11" value="Microgrid Control System" style="rounded=0;whiteSpace=wrap;html=1;fontSize=16;fillColor=#ffe6cc;strokeColor=#d79b00;" vertex="1" parent="1">
          <mxGeometry x="145" y="50" width="170" height="60" as="geometry" />
        </mxCell>
        <mxCell id="YqRIpTQ3Ia5iSlT-0wYB-12" style="edgeStyle=orthogonalEdgeStyle;rounded=0;orthogonalLoop=1;jettySize=auto;html=1;entryX=0;entryY=0.5;entryDx=0;entryDy=0;fontSize=10;startArrow=classic;startFill=1;exitX=0.5;exitY=0;exitDx=0;exitDy=0;" edge="1" parent="1" source="YqRIpTQ3Ia5iSlT-0wYB-14" target="YqRIpTQ3Ia5iSlT-0wYB-5">
          <mxGeometry relative="1" as="geometry" />
        </mxCell>
        <mxCell id="YqRIpTQ3Ia5iSlT-0wYB-13" value="Данные по качеству ЭЭ" style="edgeLabel;html=1;align=center;verticalAlign=middle;resizable=0;points=[];fontSize=10;" vertex="1" connectable="0" parent="YqRIpTQ3Ia5iSlT-0wYB-12">
          <mxGeometry x="-0.3253" relative="1" as="geometry">
            <mxPoint as="offset" />
          </mxGeometry>
        </mxCell>
        <mxCell id="YqRIpTQ3Ia5iSlT-0wYB-14" value="&lt;span style=&quot;font-size: 10px;&quot;&gt;24 x БРТП 6/0,4 (концентратор ЭКОМ 3000 - АСКУЭ)&lt;/span&gt;" style="rounded=0;whiteSpace=wrap;html=1;fontSize=10;" vertex="1" parent="1">
          <mxGeometry x="-200" y="535" width="140" height="50" as="geometry" />
        </mxCell>
        <mxCell id="YqRIpTQ3Ia5iSlT-0wYB-15" value="SCADA" style="rounded=0;whiteSpace=wrap;html=1;fontSize=16;" vertex="1" parent="1">
          <mxGeometry x="145" y="140" width="170" height="60" as="geometry" />
        </mxCell>
        <mxCell id="YqRIpTQ3Ia5iSlT-0wYB-16" style="edgeStyle=orthogonalEdgeStyle;rounded=0;orthogonalLoop=1;jettySize=auto;html=1;startArrow=classic;startFill=1;" edge="1" parent="1" source="YqRIpTQ3Ia5iSlT-0wYB-17">
          <mxGeometry relative="1" as="geometry">
            <mxPoint x="320" y="80.00000000000006" as="targetPoint" />
          </mxGeometry>
        </mxCell>
        <mxCell id="YqRIpTQ3Ia5iSlT-0wYB-17" value="Прогноз погоды" style="rounded=0;whiteSpace=wrap;html=1;fontSize=16;" vertex="1" parent="1">
          <mxGeometry x="370" y="50" width="170" height="60" as="geometry" />
        </mxCell>
        <mxCell id="YqRIpTQ3Ia5iSlT-0wYB-18" style="edgeStyle=orthogonalEdgeStyle;rounded=0;orthogonalLoop=1;jettySize=auto;html=1;entryX=0.5;entryY=1.051;entryDx=0;entryDy=0;entryPerimeter=0;fontSize=10;startArrow=classic;startFill=1;" edge="1" parent="1" source="YqRIpTQ3Ia5iSlT-0wYB-19" target="YqRIpTQ3Ia5iSlT-0wYB-23">
          <mxGeometry relative="1" as="geometry" />
        </mxCell>
        <mxCell id="YqRIpTQ3Ia5iSlT-0wYB-19" value="&lt;font style=&quot;font-size: 17px;&quot;&gt;ДЭС-1 (5 ДГУ)&lt;br&gt;&lt;/font&gt;" style="rounded=0;whiteSpace=wrap;html=1;" vertex="1" parent="1">
          <mxGeometry x="115" y="535" width="140" height="50" as="geometry" />
        </mxCell>
        <mxCell id="YqRIpTQ3Ia5iSlT-0wYB-20" value="&lt;font style=&quot;font-size: 10px;&quot;&gt;3x шлюза для агрегации данных (СМАРТ КП-2)&lt;/font&gt;" style="rounded=0;whiteSpace=wrap;html=1;fontSize=10;" vertex="1" parent="1">
          <mxGeometry x="315" y="450" width="90" height="60" as="geometry" />
        </mxCell>
        <mxCell id="YqRIpTQ3Ia5iSlT-0wYB-21" value="" style="edgeStyle=orthogonalEdgeStyle;rounded=0;orthogonalLoop=1;jettySize=auto;html=1;entryX=0.5;entryY=0;entryDx=0;entryDy=0;fontSize=16;endArrow=classic;startArrow=classic;startFill=1;endFill=1;" edge="1" parent="1" source="YqRIpTQ3Ia5iSlT-0wYB-5" target="YqRIpTQ3Ia5iSlT-0wYB-20">
          <mxGeometry relative="1" as="geometry">
            <mxPoint x="230.00000000000023" y="290" as="sourcePoint" />
            <mxPoint x="360" y="535" as="targetPoint" />
          </mxGeometry>
        </mxCell>
        <mxCell id="YqRIpTQ3Ia5iSlT-0wYB-22" style="edgeStyle=orthogonalEdgeStyle;rounded=0;orthogonalLoop=1;jettySize=auto;html=1;fontSize=10;startArrow=classic;startFill=1;entryX=0.378;entryY=1.028;entryDx=0;entryDy=0;entryPerimeter=0;" edge="1" parent="1" source="YqRIpTQ3Ia5iSlT-0wYB-23" target="YqRIpTQ3Ia5iSlT-0wYB-5">
          <mxGeometry relative="1" as="geometry" />
        </mxCell>
        <mxCell id="YqRIpTQ3Ia5iSlT-0wYB-23" value="&lt;font style=&quot;font-size: 10px;&quot;&gt;Шлюз для агрегации данных (СМАРТ КП-2)&lt;/font&gt;" style="rounded=0;whiteSpace=wrap;html=1;fontSize=10;" vertex="1" parent="1">
          <mxGeometry x="140" y="450" width="90" height="60" as="geometry" />
        </mxCell>
        <mxCell id="YqRIpTQ3Ia5iSlT-0wYB-24" value="&lt;font style=&quot;font-size: 10px;&quot;&gt;Шлюз для агрегации данных (СМАРТ КП-2)&lt;/font&gt;" style="rounded=0;whiteSpace=wrap;html=1;fontSize=10;" vertex="1" parent="1">
          <mxGeometry x="485" y="450" width="90" height="60" as="geometry" />
        </mxCell>
        <mxCell id="YqRIpTQ3Ia5iSlT-0wYB-25" value="" style="edgeStyle=orthogonalEdgeStyle;rounded=0;orthogonalLoop=1;jettySize=auto;html=1;entryX=0.5;entryY=0;entryDx=0;entryDy=0;fontSize=16;exitX=0.75;exitY=1;exitDx=0;exitDy=0;endArrow=classic;startArrow=classic;startFill=1;endFill=1;" edge="1" parent="1" source="YqRIpTQ3Ia5iSlT-0wYB-5" target="YqRIpTQ3Ia5iSlT-0wYB-24">
          <mxGeometry relative="1" as="geometry">
            <mxPoint x="315" y="275" as="sourcePoint" />
            <mxPoint x="530" y="535" as="targetPoint" />
            <Array as="points">
              <mxPoint x="272" y="330" />
              <mxPoint x="530" y="330" />
            </Array>
          </mxGeometry>
        </mxCell>
        <mxCell id="YqRIpTQ3Ia5iSlT-0wYB-26" value="Оптоволокно" style="edgeLabel;html=1;align=center;verticalAlign=middle;resizable=0;points=[];fontSize=10;" vertex="1" connectable="0" parent="YqRIpTQ3Ia5iSlT-0wYB-25">
          <mxGeometry x="-0.1572" relative="1" as="geometry">
            <mxPoint as="offset" />
          </mxGeometry>
        </mxCell>
        <mxCell id="YqRIpTQ3Ia5iSlT-0wYB-27" value="рег. &lt;i&gt;U&lt;/i&gt;, &lt;i&gt;f, распр нагр&lt;/i&gt;" style="edgeLabel;html=1;align=center;verticalAlign=middle;resizable=0;points=[];fontSize=10;" vertex="1" connectable="0" parent="1">
          <mxGeometry x="185" y="409.9978260869567" as="geometry" />
        </mxCell>
        <mxCell id="YqRIpTQ3Ia5iSlT-0wYB-28" value="рег. &lt;i&gt;U&lt;/i&gt;, &lt;i&gt;f, распр нагр&lt;/i&gt;" style="edgeLabel;html=1;align=center;verticalAlign=middle;resizable=0;points=[];fontSize=10;" vertex="1" connectable="0" parent="1">
          <mxGeometry x="360" y="389.9978260869567" as="geometry" />
        </mxCell>
        <mxCell id="YqRIpTQ3Ia5iSlT-0wYB-29" value="рег. &lt;i&gt;U&lt;/i&gt;, &lt;i&gt;f, распр нагр&lt;/i&gt;" style="edgeLabel;html=1;align=center;verticalAlign=middle;resizable=0;points=[];fontSize=10;" vertex="1" connectable="0" parent="1">
          <mxGeometry x="530" y="379.9978260869567" as="geometry" />
        </mxCell>
        <mxCell id="YqRIpTQ3Ia5iSlT-0wYB-30" style="rounded=0;orthogonalLoop=1;jettySize=auto;html=1;entryX=0.007;entryY=0.804;entryDx=0;entryDy=0;edgeStyle=orthogonalEdgeStyle;exitX=0.5;exitY=0;exitDx=0;exitDy=0;elbow=vertical;entryPerimeter=0;" edge="1" parent="1" source="YqRIpTQ3Ia5iSlT-0wYB-31" target="YqRIpTQ3Ia5iSlT-0wYB-34">
          <mxGeometry relative="1" as="geometry" />
        </mxCell>
        <mxCell id="YqRIpTQ3Ia5iSlT-0wYB-31" value="АСДУ ФЭС" style="rounded=0;whiteSpace=wrap;html=1;" vertex="1" parent="1">
          <mxGeometry x="1840" y="450" width="120" height="60" as="geometry" />
        </mxCell>
        <mxCell id="YqRIpTQ3Ia5iSlT-0wYB-32" style="edgeStyle=elbowEdgeStyle;rounded=0;orthogonalLoop=1;jettySize=auto;elbow=vertical;html=1;entryX=0.75;entryY=0;entryDx=0;entryDy=0;exitX=1;exitY=0.75;exitDx=0;exitDy=0;" edge="1" parent="1" source="YqRIpTQ3Ia5iSlT-0wYB-34" target="YqRIpTQ3Ia5iSlT-0wYB-36">
          <mxGeometry relative="1" as="geometry">
            <Array as="points">
              <mxPoint x="2290" y="285" />
              <mxPoint x="2290" y="300" />
              <mxPoint x="2280" y="320" />
              <mxPoint x="2310" y="330" />
            </Array>
          </mxGeometry>
        </mxCell>
        <mxCell id="YqRIpTQ3Ia5iSlT-0wYB-33" style="edgeStyle=orthogonalEdgeStyle;rounded=0;orthogonalLoop=1;jettySize=auto;html=1;fontSize=12;fontColor=#FF3333;endArrow=none;endFill=0;elbow=vertical;startArrow=classic;startFill=1;" edge="1" parent="1" source="YqRIpTQ3Ia5iSlT-0wYB-34">
          <mxGeometry relative="1" as="geometry">
            <mxPoint x="2390" y="270" as="targetPoint" />
          </mxGeometry>
        </mxCell>
        <mxCell id="YqRIpTQ3Ia5iSlT-0wYB-34" value="АИУС ПТК AMIGO" style="rounded=0;whiteSpace=wrap;html=1;" vertex="1" parent="1">
          <mxGeometry x="2140" y="240" width="120" height="60" as="geometry" />
        </mxCell>
        <mxCell id="YqRIpTQ3Ia5iSlT-0wYB-35" style="edgeStyle=elbowEdgeStyle;rounded=0;orthogonalLoop=1;jettySize=auto;elbow=vertical;html=1;entryX=0.667;entryY=1;entryDx=0;entryDy=0;entryPerimeter=0;exitX=0.25;exitY=0;exitDx=0;exitDy=0;" edge="1" parent="1" source="YqRIpTQ3Ia5iSlT-0wYB-36" target="YqRIpTQ3Ia5iSlT-0wYB-34">
          <mxGeometry relative="1" as="geometry" />
        </mxCell>
        <mxCell id="YqRIpTQ3Ia5iSlT-0wYB-36" value="СУ СНЭЭ" style="rounded=0;whiteSpace=wrap;html=1;" vertex="1" parent="1">
          <mxGeometry x="2150" y="450" width="280" height="60" as="geometry" />
        </mxCell>
        <mxCell id="YqRIpTQ3Ia5iSlT-0wYB-37" style="edgeStyle=orthogonalEdgeStyle;rounded=0;orthogonalLoop=1;jettySize=auto;html=1;exitX=0.166;exitY=1.022;exitDx=0;exitDy=0;exitPerimeter=0;" edge="1" parent="1" source="YqRIpTQ3Ia5iSlT-0wYB-39">
          <mxGeometry relative="1" as="geometry">
            <mxPoint x="2230" y="-70" as="targetPoint" />
          </mxGeometry>
        </mxCell>
        <mxCell id="YqRIpTQ3Ia5iSlT-0wYB-38" style="edgeStyle=orthogonalEdgeStyle;rounded=0;orthogonalLoop=1;jettySize=auto;html=1;exitX=0.75;exitY=1;exitDx=0;exitDy=0;" edge="1" parent="1" source="YqRIpTQ3Ia5iSlT-0wYB-39">
          <mxGeometry relative="1" as="geometry">
            <mxPoint x="2300" y="-70" as="targetPoint" />
          </mxGeometry>
        </mxCell>
        <mxCell id="YqRIpTQ3Ia5iSlT-0wYB-39" value="ExternalGrid" style="rounded=0;whiteSpace=wrap;html=1;" vertex="1" parent="1">
          <mxGeometry x="2210" y="-189" width="120" height="40" as="geometry" />
        </mxCell>
        <mxCell id="YqRIpTQ3Ia5iSlT-0wYB-40" value="" style="endArrow=none;html=1;" edge="1" parent="1">
          <mxGeometry width="50" height="50" relative="1" as="geometry">
            <mxPoint x="2090" y="-69" as="sourcePoint" />
            <mxPoint x="2630" y="-69" as="targetPoint" />
          </mxGeometry>
        </mxCell>
        <mxCell id="YqRIpTQ3Ia5iSlT-0wYB-41" style="edgeStyle=orthogonalEdgeStyle;rounded=0;orthogonalLoop=1;jettySize=auto;html=1;endArrow=oval;endFill=1;" edge="1" parent="1" source="YqRIpTQ3Ia5iSlT-0wYB-42">
          <mxGeometry relative="1" as="geometry">
            <mxPoint x="2120" y="-69" as="targetPoint" />
          </mxGeometry>
        </mxCell>
        <mxCell id="YqRIpTQ3Ia5iSlT-0wYB-42" value="Invertor_1" style="rounded=0;whiteSpace=wrap;html=1;" vertex="1" parent="1">
          <mxGeometry x="2060" y="1" width="120" height="40" as="geometry" />
        </mxCell>
        <mxCell id="YqRIpTQ3Ia5iSlT-0wYB-43" style="edgeStyle=orthogonalEdgeStyle;rounded=0;orthogonalLoop=1;jettySize=auto;html=1;endArrow=oval;endFill=1;" edge="1" parent="1" source="YqRIpTQ3Ia5iSlT-0wYB-44">
          <mxGeometry relative="1" as="geometry">
            <mxPoint x="2260" y="-69" as="targetPoint" />
          </mxGeometry>
        </mxCell>
        <mxCell id="YqRIpTQ3Ia5iSlT-0wYB-44" value="Invertor_N" style="rounded=0;whiteSpace=wrap;html=1;" vertex="1" parent="1">
          <mxGeometry x="2200" y="1" width="120" height="40" as="geometry" />
        </mxCell>
        <mxCell id="YqRIpTQ3Ia5iSlT-0wYB-45" style="edgeStyle=orthogonalEdgeStyle;rounded=0;orthogonalLoop=1;jettySize=auto;html=1;endArrow=oval;endFill=1;" edge="1" parent="1" source="YqRIpTQ3Ia5iSlT-0wYB-46">
          <mxGeometry relative="1" as="geometry">
            <mxPoint x="2400" y="-69" as="targetPoint" />
          </mxGeometry>
        </mxCell>
        <mxCell id="YqRIpTQ3Ia5iSlT-0wYB-46" value="Load" style="rounded=0;whiteSpace=wrap;html=1;" vertex="1" parent="1">
          <mxGeometry x="2340" y="1" width="120" height="40" as="geometry" />
        </mxCell>
        <mxCell id="YqRIpTQ3Ia5iSlT-0wYB-47" style="edgeStyle=orthogonalEdgeStyle;rounded=0;orthogonalLoop=1;jettySize=auto;html=1;endArrow=oval;endFill=1;" edge="1" parent="1" source="YqRIpTQ3Ia5iSlT-0wYB-48">
          <mxGeometry relative="1" as="geometry">
            <mxPoint x="2550" y="-69" as="targetPoint" />
          </mxGeometry>
        </mxCell>
        <mxCell id="YqRIpTQ3Ia5iSlT-0wYB-48" value="EESS" style="rounded=0;whiteSpace=wrap;html=1;" vertex="1" parent="1">
          <mxGeometry x="2490" y="1" width="120" height="40" as="geometry" />
        </mxCell>
        <mxCell id="YqRIpTQ3Ia5iSlT-0wYB-49" value="&#xa;chargeEfficiency - 97 %&#xa;dischargeEfficiency - 97%&#xa;ratedCapacity - 326,8 kW*h&#xa;ratedPowerInput - 312,5 kW&#xa;ratedPowerOutput - 312,5 kW&#xa;depthOfDischarge - 90%&#xa;InverterApparentPower - 312,5 kVA&#xa;" style="text;" vertex="1" parent="1">
          <mxGeometry x="2650" y="-76.5" width="160" height="127.5" as="geometry" />
        </mxCell>
        <mxCell id="YqRIpTQ3Ia5iSlT-0wYB-50" value="485,1 кВт, общее количество&amp;nbsp; ФЭМ 1540 шт." style="text;whiteSpace=wrap;html=1;" vertex="1" parent="1">
          <mxGeometry x="2060" y="90" width="310" height="30" as="geometry" />
        </mxCell>
        <mxCell id="YqRIpTQ3Ia5iSlT-0wYB-51" value="&lt;ul style=&quot;list-style-type: square&quot;&gt;&lt;li&gt;SG10KTL-M - 1 шт. (10 кВт)&lt;/li&gt;&lt;li&gt;SG12KTL-M - 2 шт. (24 кВт)&lt;/li&gt;&lt;li&gt;SG20KTL-M - 3 шт. (60 кВт)&lt;/li&gt;&lt;li&gt;SG30KTL-M - 7 шт. (210 кВт)&lt;/li&gt;&lt;li&gt;SG50KTL-M - 2 шт. (100 кВт)&lt;/li&gt;&lt;li&gt;SG80KTL-M - 1 шт. (80 кВт)&lt;/li&gt;&lt;li&gt;Итого - 484 кВт&lt;/li&gt;&lt;/ul&gt;" style="text;whiteSpace=wrap;html=1;" vertex="1" parent="1">
          <mxGeometry x="1840" y="-89" width="220" height="140" as="geometry" />
        </mxCell>
        <mxCell id="YqRIpTQ3Ia5iSlT-0wYB-52" value="" style="endArrow=classic;html=1;strokeColor=#FF3333;" edge="1" parent="1">
          <mxGeometry width="50" height="50" relative="1" as="geometry">
            <mxPoint x="2110" y="-9" as="sourcePoint" />
            <mxPoint x="2110" y="-59" as="targetPoint" />
          </mxGeometry>
        </mxCell>
        <mxCell id="YqRIpTQ3Ia5iSlT-0wYB-53" value="" style="endArrow=classic;html=1;strokeColor=#FF3333;" edge="1" parent="1">
          <mxGeometry width="50" height="50" relative="1" as="geometry">
            <mxPoint x="2250" y="-9" as="sourcePoint" />
            <mxPoint x="2250" y="-59" as="targetPoint" />
          </mxGeometry>
        </mxCell>
        <mxCell id="YqRIpTQ3Ia5iSlT-0wYB-54" value="" style="endArrow=classic;html=1;strokeColor=#FF3333;" edge="1" parent="1">
          <mxGeometry width="50" height="50" relative="1" as="geometry">
            <mxPoint x="2540" y="-9" as="sourcePoint" />
            <mxPoint x="2540" y="-59" as="targetPoint" />
          </mxGeometry>
        </mxCell>
        <mxCell id="YqRIpTQ3Ia5iSlT-0wYB-55" value="" style="endArrow=none;html=1;strokeColor=#FF3333;startArrow=classic;startFill=1;endFill=0;" edge="1" parent="1">
          <mxGeometry width="50" height="50" relative="1" as="geometry">
            <mxPoint x="2413" y="-9" as="sourcePoint" />
            <mxPoint x="2413" y="-59" as="targetPoint" />
          </mxGeometry>
        </mxCell>
        <mxCell id="YqRIpTQ3Ia5iSlT-0wYB-56" value="" style="endArrow=none;html=1;strokeColor=#FF3333;startArrow=classic;startFill=1;endFill=0;" edge="1" parent="1">
          <mxGeometry width="50" height="50" relative="1" as="geometry">
            <mxPoint x="2240" y="-90" as="sourcePoint" />
            <mxPoint x="2240" y="-140.0000000000001" as="targetPoint" />
          </mxGeometry>
        </mxCell>
        <mxCell id="YqRIpTQ3Ia5iSlT-0wYB-57" value="" style="endArrow=none;html=1;strokeColor=#FF3333;startArrow=classic;startFill=1;endFill=0;" edge="1" parent="1">
          <mxGeometry width="50" height="50" relative="1" as="geometry">
            <mxPoint x="2560" y="-9" as="sourcePoint" />
            <mxPoint x="2560" y="-59" as="targetPoint" />
          </mxGeometry>
        </mxCell>
        <mxCell id="YqRIpTQ3Ia5iSlT-0wYB-58" value="Мощность нельзя выдавать в сеть" style="text;whiteSpace=wrap;html=1;" vertex="1" parent="1">
          <mxGeometry x="2410" y="-139" width="210" height="30" as="geometry" />
        </mxCell>
        <mxCell id="YqRIpTQ3Ia5iSlT-0wYB-59" value="Краснодарский край, Анапа&lt;br&gt;3ЦК, 670-10000 кВт, 0,4 кВ" style="text;whiteSpace=wrap;html=1;" vertex="1" parent="1">
          <mxGeometry x="2360" y="-199" width="160" height="30" as="geometry" />
        </mxCell>
        <mxCell id="YqRIpTQ3Ia5iSlT-0wYB-60" value="Структурная схема" style="text;whiteSpace=wrap;html=1;fontSize=20;fontStyle=1" vertex="1" parent="1">
          <mxGeometry x="1880" y="-199" width="310" height="30" as="geometry" />
        </mxCell>
        <mxCell id="YqRIpTQ3Ia5iSlT-0wYB-61" value="" style="endArrow=none;html=1;strokeColor=#FF3333;startArrow=classic;startFill=1;endFill=0;" edge="1" parent="1">
          <mxGeometry width="50" height="50" relative="1" as="geometry">
            <mxPoint x="2310" y="-90" as="sourcePoint" />
            <mxPoint x="2310" y="-140" as="targetPoint" />
          </mxGeometry>
        </mxCell>
        <mxCell id="YqRIpTQ3Ia5iSlT-0wYB-62" value="" style="rounded=0;whiteSpace=wrap;html=1;fillColor=none;dashed=1;" vertex="1" parent="1">
          <mxGeometry x="2040" y="-9" width="290" height="89" as="geometry" />
        </mxCell>
        <mxCell id="YqRIpTQ3Ia5iSlT-0wYB-63" value="Шкаф №1, 5 0,4 кВ БКТП 345" style="text;whiteSpace=wrap;html=1;" vertex="1" parent="1">
          <mxGeometry x="2050" y="-130" width="170" height="30" as="geometry" />
        </mxCell>
        <mxCell id="YqRIpTQ3Ia5iSlT-0wYB-64" value="&lt;span style=&quot;color: rgb(0 , 0 , 0) ; font-family: &amp;#34;helvetica&amp;#34; ; font-size: 12px ; font-style: normal ; font-weight: 400 ; letter-spacing: normal ; text-align: center ; text-indent: 0px ; text-transform: none ; word-spacing: 0px ; background-color: rgb(248 , 249 , 250) ; display: inline ; float: none&quot;&gt;АСДУ ФЭС&lt;/span&gt;" style="text;whiteSpace=wrap;html=1;" vertex="1" parent="1">
          <mxGeometry x="2230" y="51" width="80" height="30" as="geometry" />
        </mxCell>
        <mxCell id="YqRIpTQ3Ia5iSlT-0wYB-65" value="" style="rounded=0;whiteSpace=wrap;html=1;fillColor=none;dashed=1;" vertex="1" parent="1">
          <mxGeometry x="2480" y="-9" width="140" height="89" as="geometry" />
        </mxCell>
        <mxCell id="YqRIpTQ3Ia5iSlT-0wYB-66" value="&lt;span style=&quot;color: rgb(0 , 0 , 0) ; font-family: &amp;#34;helvetica&amp;#34; ; font-size: 12px ; font-style: normal ; font-weight: 400 ; letter-spacing: normal ; text-align: center ; text-indent: 0px ; text-transform: none ; word-spacing: 0px ; background-color: rgb(248 , 249 , 250) ; display: inline ; float: none&quot;&gt;СУ СНЭЭ&lt;/span&gt;" style="text;whiteSpace=wrap;html=1;" vertex="1" parent="1">
          <mxGeometry x="2520" y="50" width="80" height="30" as="geometry" />
        </mxCell>
        <mxCell id="YqRIpTQ3Ia5iSlT-0wYB-67" value="1) P (шкаф №1, 5 БКТП 345)&lt;br&gt;2) 16 x Pсумм, уставка активной мощности, уставка режим регулирования" style="text;whiteSpace=wrap;html=1;" vertex="1" parent="1">
          <mxGeometry x="1870" y="221" width="260" height="60" as="geometry" />
        </mxCell>
        <mxCell id="YqRIpTQ3Ia5iSlT-0wYB-68" value="" style="endArrow=classic;html=1;rounded=0;elbow=vertical;entryX=0.25;entryY=0;entryDx=0;entryDy=0;" edge="1" parent="1" target="YqRIpTQ3Ia5iSlT-0wYB-34">
          <mxGeometry width="50" height="50" relative="1" as="geometry">
            <mxPoint x="2170" y="140" as="sourcePoint" />
            <mxPoint x="2290" y="160" as="targetPoint" />
          </mxGeometry>
        </mxCell>
        <mxCell id="YqRIpTQ3Ia5iSlT-0wYB-69" value="Прогноз ЧПН, ПЧПН&lt;br&gt;Прогноз нагрузки и генерации" style="text;whiteSpace=wrap;html=1;" vertex="1" parent="1">
          <mxGeometry x="1985" y="152" width="175" height="39" as="geometry" />
        </mxCell>
        <mxCell id="YqRIpTQ3Ia5iSlT-0wYB-70" value="" style="endArrow=classic;html=1;rounded=0;elbow=vertical;entryX=0.75;entryY=0;entryDx=0;entryDy=0;" edge="1" parent="1" target="YqRIpTQ3Ia5iSlT-0wYB-34">
          <mxGeometry width="50" height="50" relative="1" as="geometry">
            <mxPoint x="2230" y="140" as="sourcePoint" />
            <mxPoint x="2290" y="130" as="targetPoint" />
          </mxGeometry>
        </mxCell>
        <mxCell id="YqRIpTQ3Ia5iSlT-0wYB-71" value="Данные для расчета эконом. параметров" style="text;whiteSpace=wrap;html=1;" vertex="1" parent="1">
          <mxGeometry x="2235" y="152" width="175" height="39" as="geometry" />
        </mxCell>
        <mxCell id="YqRIpTQ3Ia5iSlT-0wYB-72" value="p_set (уставка СНЭЭ)" style="text;whiteSpace=wrap;html=1;" vertex="1" parent="1">
          <mxGeometry x="2374.5" y="350" width="131" height="30" as="geometry" />
        </mxCell>
        <mxCell id="YqRIpTQ3Ia5iSlT-0wYB-73" value="&lt;table style=&quot;font-style: normal ; font-weight: 400 ; letter-spacing: normal ; text-align: left ; text-transform: none ; word-spacing: 0px ; background-color: rgb(248 , 249 , 250) ; color: rgb(0 , 0 , 0) ; font-family: &amp;#34;times new roman&amp;#34; ; font-size: 12px&quot;&gt;&lt;tbody style=&quot;font-size: 12px&quot;&gt;&lt;tr style=&quot;font-size: 12px&quot;&gt;&lt;td style=&quot;font-size: 12px&quot;&gt;EESS&lt;/td&gt;&lt;td style=&quot;font-size: 12px&quot;&gt;p_current&lt;/td&gt;&lt;td style=&quot;font-size: 12px&quot;&gt;Текущая активная мощность накопителя&lt;/td&gt;&lt;/tr&gt;&lt;tr style=&quot;font-size: 12px&quot;&gt;&lt;td style=&quot;font-size: 12px&quot;&gt;EESS&lt;/td&gt;&lt;td style=&quot;font-size: 12px&quot;&gt;e_current&lt;/td&gt;&lt;td style=&quot;font-size: 12px&quot;&gt;Текущая доступная энергоёмкость накопителя&lt;br&gt;&lt;br&gt;Циклы + u_dc&lt;/td&gt;&lt;/tr&gt;&lt;/tbody&gt;&lt;/table&gt;" style="text;whiteSpace=wrap;html=1;fontSize=12;fillColor=#FFFFFF;" vertex="1" parent="1">
          <mxGeometry x="1980" y="320" width="230" height="90" as="geometry" />
        </mxCell>
        <mxCell id="YqRIpTQ3Ia5iSlT-0wYB-74" value="Мастер-данные (сеть, накопитель, СЭС)" style="text;whiteSpace=wrap;html=1;" vertex="1" parent="1">
          <mxGeometry x="2340" y="231" width="131" height="30" as="geometry" />
        </mxCell>
        <mxCell id="YqRIpTQ3Ia5iSlT-0wYB-75" value="&lt;p class=&quot;MsoListParagraph&quot; style=&quot;text-align: justify&quot;&gt;&lt;b&gt;&lt;i&gt;&lt;span style=&quot;font-family: &amp;#34;times new roman&amp;#34; , serif&quot;&gt;При достижении определенной уставки суммарного перетока мощности через Ввод1 0,4 кВ и Ввод2 0,4 кВ БКТП 345 АСДУ ФЭС&amp;nbsp;&lt;/span&gt;&lt;/i&gt;&lt;/b&gt;&lt;i&gt;&lt;span style=&quot;font-family: &amp;#34;times new roman&amp;#34; , serif&quot;&gt;формирует управляющее воздействие на уменьшение значений выходного тока переменного напряжения 0,4 кВ, выдаваемого в сеть электроснабжения предприятия.&lt;/span&gt;&lt;/i&gt;&lt;/p&gt;&lt;p class=&quot;MsoListParagraph&quot; style=&quot;text-align: justify&quot;&gt;&lt;i&gt;&lt;span style=&quot;font-family: &amp;#34;times new roman&amp;#34; , serif&quot;&gt;Управляющее воздействие передается по сети АСДУ каждому инвертору, находящемуся&lt;br&gt;в работе. Инверторы в соответствии с параметром управляющей команды уменьшают&lt;br&gt;значение выходного тока в сеть предприятия, и, следовательно, - выдачу генерируемой фотоэлектрическим модулям электрической мощности. Что позволяет не&lt;br&gt;достигать перепроизводства электроэнергии станцией.&lt;/span&gt;&lt;/i&gt;&lt;/p&gt;" style="text;whiteSpace=wrap;html=1;fontSize=12;fontColor=#FF3333;" vertex="1" parent="1">
          <mxGeometry x="2120" y="-400" width="490" height="180" as="geometry" />
        </mxCell>
      </root>
    </mxGraphModel>
  </diagram>
  <diagram id="rUV3eMKY4DGZ0hKd_9WD" name="Docker">
    <mxGraphModel dx="5285" dy="1895" grid="1" gridSize="10" guides="1" tooltips="1" connect="1" arrows="1" fold="1" page="1" pageScale="1" pageWidth="850" pageHeight="1100" math="0" shadow="0">
      <root>
        <mxCell id="0" />
        <mxCell id="1" parent="0" />
        <mxCell id="arf171ekbPJKr-LLL3k8-1" value="&lt;div style=&quot;display: flex; justify-content: flex-start; text-align: left; align-items: baseline; font-size: 0; line-height: 1.25;margin-top: -2px;&quot;&gt;&lt;span&gt;&lt;span style=&quot;font-size:16.7px;color:#333333;&quot;&gt;Сервер RTSoft. &lt;/span&gt;&lt;span style=&quot;font-size:16.7px;color:#000000;&quot;&gt;&lt;span style=&quot;font-size:16.7px;color:#000000;&quot;&gt;Система управления&lt;/span&gt;&lt;a href=&quot;https://ru.wikipedia.org/wiki/%D0%A0%D0%B5%D0%BF%D0%BE%D0%B7%D0%B8%D1%82%D0%BE%D1%80%D0%B8%D0%B9&quot;&gt;&lt;span style=&quot;font-size:16.7px;color:#000000;&quot;&gt; репозиториями&lt;/span&gt;&lt;/a&gt;&lt;span style=&quot;font-size:16.7px;color:#000000;&quot;&gt; кода для&lt;/span&gt;&lt;a href=&quot;https://ru.wikipedia.org/wiki/Git&quot;&gt;&lt;span style=&quot;font-size:16.7px;color:#000000;&quot;&gt; Git&lt;/span&gt;&lt;/a&gt;&lt;span style=&quot;font-size:16.7px;color:#000000;&quot;&gt;,&lt;/span&gt;&lt;a href=&quot;https://ru.wikipedia.org/wiki/%D0%A1%D0%B8%D1%81%D1%82%D0%B5%D0%BC%D0%B0_%D0%BE%D1%82%D1%81%D0%BB%D0%B5%D0%B6%D0%B8%D0%B2%D0%B0%D0%BD%D0%B8%D1%8F_%D0%BE%D1%88%D0%B8%D0%B1%D0%BE%D0%BA&quot;&gt;&lt;span style=&quot;font-size:16.7px;color:#000000;&quot;&gt; систем&lt;/span&gt;&lt;/a&gt;&lt;a href=&quot;https://ru.wikipedia.org/wiki/%D0%A1%D0%B8%D1%81%D1%82%D0%B5%D0%BC%D0%B0_%D0%BE%D1%82%D1%81%D0%BB%D0%B5%D0%B6%D0%B8%D0%B2%D0%B0%D0%BD%D0%B8%D1%8F_%D0%BE%D1%88%D0%B8%D0%B1%D0%BE%D0%BA&quot;&gt;&lt;span style=&quot;font-size:16.7px;color:#000000;&quot;&gt;а&lt;/span&gt;&lt;/a&gt;&lt;a href=&quot;https://ru.wikipedia.org/wiki/%D0%A1%D0%B8%D1%81%D1%82%D0%B5%D0%BC%D0%B0_%D0%BE%D1%82%D1%81%D0%BB%D0%B5%D0%B6%D0%B8%D0%B2%D0%B0%D0%BD%D0%B8%D1%8F_%D0%BE%D1%88%D0%B8%D0%B1%D0%BE%D0%BA&quot;&gt;&lt;span style=&quot;font-size:16.7px;color:#000000;&quot;&gt; отслеживания ошибок&lt;/span&gt;&lt;/a&gt;&lt;span style=&quot;font-size:16.7px;color:#000000;&quot;&gt;,&lt;/span&gt;&lt;a href=&quot;https://ru.wikipedia.org/wiki/%D0%9D%D0%B5%D0%BF%D1%80%D0%B5%D1%80%D1%8B%D0%B2%D0%BD%D0%B0%D1%8F_%D0%B8%D0%BD%D1%82%D0%B5%D0%B3%D1%80%D0%B0%D1%86%D0%B8%D1%8F&quot;&gt;&lt;span style=&quot;font-size:16.7px;color:#000000;&quot;&gt; CI&lt;/span&gt;&lt;/a&gt;&lt;span style=&quot;font-size:16.7px;color:#000000;&quot;&gt;/&lt;/span&gt;&lt;a href=&quot;https://ru.wikipedia.org/wiki/%D0%9D%D0%B5%D0%BF%D1%80%D0%B5%D1%80%D1%8B%D0%B2%D0%BD%D0%B0%D1%8F_%D0%B4%D0%BE%D1%81%D1%82%D0%B0%D0%B2%D0%BA%D0%B0&quot;&gt;&lt;span style=&quot;font-size:16.7px;color:#000000;&quot;&gt;CD&lt;/span&gt;&lt;/a&gt; пайплайн&lt;/span&gt;&lt;/span&gt;&lt;/div&gt;" style="html=1;overflow=block;blockSpacing=1;whiteSpace=wrap;fontSize=13;spacing=3.8;verticalAlign=top;strokeOpacity=100;fillOpacity=100;fillColor=#ffffff;strokeWidth=2.3;lucidId=wxG7bDNwmzTm;" vertex="1" parent="1">
          <mxGeometry x="-1015" y="630" width="354" height="246" as="geometry" />
        </mxCell>
        <mxCell id="arf171ekbPJKr-LLL3k8-2" value="Linux VM" style="html=1;overflow=block;blockSpacing=1;whiteSpace=wrap;fontSize=21.7;fontColor=#333333;align=right;spacing=3.8;verticalAlign=top;strokeOpacity=100;fillOpacity=100;fillColor=#ffffff;strokeWidth=2.3;lucidId=VwG7SJPnVazq;" vertex="1" parent="1">
          <mxGeometry x="-985" y="695" width="302" height="150" as="geometry" />
        </mxCell>
        <mxCell id="arf171ekbPJKr-LLL3k8-3" value="&lt;b&gt;Сервер РТСофт / Промышленный компьютер&lt;/b&gt;" style="html=1;overflow=block;blockSpacing=1;whiteSpace=wrap;fontSize=18.3;fontColor=#333333;align=right;spacing=3.8;verticalAlign=top;strokeOpacity=100;fillOpacity=100;fillColor=#ffffff;strokeWidth=2.3;lucidId=NWNsLQBkYInX;" vertex="1" parent="1">
          <mxGeometry x="-591" y="340" width="765" height="509" as="geometry" />
        </mxCell>
        <mxCell id="arf171ekbPJKr-LLL3k8-4" value="Astra Linux" style="html=1;overflow=block;blockSpacing=1;whiteSpace=wrap;fontSize=21.7;fontColor=#333333;align=right;spacing=3.8;verticalAlign=top;strokeOpacity=100;fillOpacity=100;fillColor=#ffffff;strokeWidth=2.3;lucidId=dXNsU.M60c~a;" vertex="1" parent="1">
          <mxGeometry x="-576" y="399" width="735" height="435" as="geometry" />
        </mxCell>
        <mxCell id="arf171ekbPJKr-LLL3k8-5" value="Docker Daemon" style="html=1;overflow=block;blockSpacing=1;whiteSpace=wrap;fontSize=15;fontColor=#333333;align=right;spacing=3.8;verticalAlign=top;strokeOpacity=100;fillOpacity=100;fillColor=#ffffff;strokeWidth=2.3;lucidId=bYNsBepRkyOs;" vertex="1" parent="1">
          <mxGeometry x="-561" y="415" width="603" height="403" as="geometry" />
        </mxCell>
        <mxCell id="arf171ekbPJKr-LLL3k8-6" value="" style="html=1;overflow=block;blockSpacing=1;whiteSpace=wrap;shape=image;fontSize=13;spacing=0;strokeColor=none;strokeOpacity=100;strokeWidth=0;image=https://images.app.lucidchart.com/images/1ac84bc6-f7e9-4e8e-999f-66368d8fee9f/content;imageAspect=0;lucidId=xYNs_tCioq9I;" vertex="1" parent="1">
          <mxGeometry x="-58" y="435" width="94" height="24" as="geometry" />
        </mxCell>
        <mxCell id="arf171ekbPJKr-LLL3k8-7" style="edgeStyle=orthogonalEdgeStyle;rounded=0;orthogonalLoop=1;jettySize=auto;html=1;entryX=0.648;entryY=1.001;entryDx=0;entryDy=0;startArrow=classic;startFill=1;entryPerimeter=0;" edge="1" parent="1" source="arf171ekbPJKr-LLL3k8-9" target="arf171ekbPJKr-LLL3k8-46">
          <mxGeometry relative="1" as="geometry">
            <Array as="points">
              <mxPoint x="-250" y="652" />
            </Array>
          </mxGeometry>
        </mxCell>
        <mxCell id="arf171ekbPJKr-LLL3k8-8" value="WS, API" style="edgeLabel;html=1;align=center;verticalAlign=middle;resizable=0;points=[];" vertex="1" connectable="0" parent="arf171ekbPJKr-LLL3k8-7">
          <mxGeometry x="0.002" y="-2" relative="1" as="geometry">
            <mxPoint x="42" y="3" as="offset" />
          </mxGeometry>
        </mxCell>
        <mxCell id="arf171ekbPJKr-LLL3k8-9" value="container&lt;br&gt;&lt;div style=&quot;text-align: center;&quot;&gt;&lt;span style=&quot;background-color: initial;&quot;&gt;&lt;b&gt;AMIGO Frontend + nginx&lt;/b&gt;&lt;/span&gt;&lt;/div&gt;&lt;div style=&quot;text-align: center;&quot;&gt;&lt;span style=&quot;background-color: initial;&quot;&gt;&lt;br&gt;&lt;/span&gt;&lt;/div&gt;&lt;div style=&quot;text-align: center;&quot;&gt;&lt;span style=&quot;background-color: initial;&quot;&gt;http://192.168.10.6/amigo/&lt;/span&gt;&lt;/div&gt;&lt;div style=&quot;text-align: center;&quot;&gt;&lt;span style=&quot;background-color: initial;&quot;&gt;frontend-lelenergo&lt;br&gt;&lt;/span&gt;&lt;/div&gt;" style="html=1;overflow=block;blockSpacing=1;whiteSpace=wrap;fontSize=11.7;fontColor=#333333;align=right;spacing=3.8;verticalAlign=top;strokeOpacity=100;fillOpacity=100;fillColor=#ffffff;strokeWidth=2.3;lucidId=.ZNsZsHuAFoC;" vertex="1" parent="1">
          <mxGeometry x="-137" y="610" width="165" height="84" as="geometry" />
        </mxCell>
        <mxCell id="arf171ekbPJKr-LLL3k8-10" value="containers&lt;br&gt;&lt;br&gt;Мониторинг hardware/software" style="html=1;overflow=block;blockSpacing=1;whiteSpace=wrap;fontSize=11.7;fontColor=#333333;align=right;spacing=3.8;verticalAlign=top;strokeOpacity=100;fillOpacity=100;fillColor=#ffffff;strokeWidth=2.3;lucidId=F0Nsuqpqv4tn;dashed=1;" vertex="1" parent="1">
          <mxGeometry x="-546" y="720" width="165" height="84" as="geometry" />
        </mxCell>
        <mxCell id="arf171ekbPJKr-LLL3k8-11" value="" style="html=1;jettySize=18;whiteSpace=wrap;fontSize=13;strokeOpacity=100;strokeWidth=2.3;rounded=1;arcSize=0;edgeStyle=orthogonalEdgeStyle;startArrow=none;endArrow=block;endFill=1;exitX=1;exitY=0.5;entryX=0;entryY=0.5;lucidId=BiOsZtZsSBIk;exitDx=0;exitDy=0;entryDx=0;entryDy=0;" edge="1" parent="1" source="arf171ekbPJKr-LLL3k8-9" target="arf171ekbPJKr-LLL3k8-13">
          <mxGeometry width="100" height="100" relative="1" as="geometry">
            <Array as="points" />
          </mxGeometry>
        </mxCell>
        <mxCell id="arf171ekbPJKr-LLL3k8-12" value="HTTPS" style="text;html=1;resizable=0;labelBackgroundColor=default;align=center;verticalAlign=middle;fontColor=#333333;fontSize=11.7;" vertex="1" parent="arf171ekbPJKr-LLL3k8-11">
          <mxGeometry x="0.39663697485362204" relative="1" as="geometry" />
        </mxCell>
        <mxCell id="arf171ekbPJKr-LLL3k8-13" value="Web application" style="html=1;overflow=block;blockSpacing=1;align=center;whiteSpace=wrap;fontSize=13;fontStyle=1;spacing=0;strokeOpacity=100;fillOpacity=100;fillColor=#ffffff;strokeWidth=2.3;" vertex="1" parent="1">
          <mxGeometry x="290" y="615" width="120" height="74" as="geometry" />
        </mxCell>
        <mxCell id="arf171ekbPJKr-LLL3k8-14" value="User" style="html=1;overflow=block;blockSpacing=1;shape=umlActor;labelPosition=center;verticalLabelPosition=bottom;verticalAlign=top;whiteSpace=nowrap;fontSize=11.7;fontColor=#333333;align=center;spacing=0;strokeOpacity=100;fillOpacity=100;fillColor=#7ab648;strokeWidth=2.3;lucidId=UiOsMToCahsF;" vertex="1" parent="1">
          <mxGeometry x="440" y="585" width="60" height="135" as="geometry" />
        </mxCell>
        <mxCell id="arf171ekbPJKr-LLL3k8-15" value="" style="html=1;overflow=block;blockSpacing=1;whiteSpace=wrap;shape=image;fontSize=13;spacing=0;strokeColor=none;strokeOpacity=100;strokeWidth=0;image=https://images.app.lucidchart.com/images/5260f441-3e52-4a52-882c-b87c9dda6873/content;imageAspect=0;lucidId=BjOsG8vt3Nzm;" vertex="1" parent="1">
          <mxGeometry x="-540" y="731" width="60" height="62" as="geometry" />
        </mxCell>
        <mxCell id="arf171ekbPJKr-LLL3k8-16" value="Monitoring web page" style="html=1;overflow=block;blockSpacing=1;align=center;whiteSpace=wrap;fontSize=13;fontStyle=1;spacing=0;strokeOpacity=100;fillOpacity=100;fillColor=#ffffff;strokeWidth=2.3;dashed=1;" vertex="1" parent="1">
          <mxGeometry x="-523.5" y="924" width="120" height="74" as="geometry" />
        </mxCell>
        <mxCell id="arf171ekbPJKr-LLL3k8-17" value="" style="html=1;jettySize=18;whiteSpace=wrap;fontSize=13;strokeOpacity=100;strokeWidth=2.3;rounded=1;arcSize=0;edgeStyle=orthogonalEdgeStyle;startArrow=none;endArrow=block;endFill=1;exitX=0.5;exitY=1.006;exitPerimeter=0;entryX=0.5;entryY=-0.015;entryPerimeter=0;lucidId=BkOsrwavDdbZ;" edge="1" parent="1" source="arf171ekbPJKr-LLL3k8-10" target="arf171ekbPJKr-LLL3k8-16">
          <mxGeometry width="100" height="100" relative="1" as="geometry">
            <Array as="points" />
          </mxGeometry>
        </mxCell>
        <mxCell id="arf171ekbPJKr-LLL3k8-18" value="HTTP" style="text;html=1;resizable=0;labelBackgroundColor=default;align=center;verticalAlign=middle;fontColor=#333333;fontSize=11.7;" vertex="1" parent="arf171ekbPJKr-LLL3k8-17">
          <mxGeometry x="0.3643813883112461" relative="1" as="geometry" />
        </mxCell>
        <mxCell id="arf171ekbPJKr-LLL3k8-19" value="Admin" style="html=1;overflow=block;blockSpacing=1;shape=umlActor;labelPosition=center;verticalLabelPosition=bottom;verticalAlign=top;whiteSpace=nowrap;fontSize=11.7;fontColor=#333333;align=center;spacing=0;strokeOpacity=100;fillOpacity=100;fillColor=#d85656;strokeWidth=2.3;lucidId=bmOscdkiTe4P;" vertex="1" parent="1">
          <mxGeometry x="-603" y="893.5" width="60" height="135" as="geometry" />
        </mxCell>
        <mxCell id="arf171ekbPJKr-LLL3k8-20" value="container" style="html=1;overflow=block;blockSpacing=1;whiteSpace=wrap;fontSize=11.7;fontColor=#333333;align=right;spacing=3.8;verticalAlign=top;strokeOpacity=100;fillOpacity=100;fillColor=#ffffff;strokeWidth=2.3;lucidId=B7OsxOQhl9m6;" vertex="1" parent="1">
          <mxGeometry x="-543" y="422" width="165" height="90" as="geometry" />
        </mxCell>
        <mxCell id="arf171ekbPJKr-LLL3k8-21" value="" style="html=1;overflow=block;blockSpacing=1;whiteSpace=wrap;shape=image;fontSize=13;spacing=0;strokeColor=none;strokeOpacity=100;strokeWidth=0;image=https://images.app.lucidchart.com/images/7b588eef-c84f-4ed8-bd65-80b832fb49fd/content;imageAspect=0;lucidId=x7Osxaa~HEvV;" vertex="1" parent="1">
          <mxGeometry x="-526" y="448" width="95" height="44" as="geometry" />
        </mxCell>
        <mxCell id="arf171ekbPJKr-LLL3k8-22" value="Admin" style="html=1;overflow=block;blockSpacing=1;shape=umlActor;labelPosition=center;verticalLabelPosition=bottom;verticalAlign=top;whiteSpace=nowrap;fontSize=11.7;fontColor=#333333;align=center;spacing=0;strokeOpacity=100;fillOpacity=100;fillColor=#d85656;strokeWidth=2.3;lucidId=Y7OslW_Uk8zC;" vertex="1" parent="1">
          <mxGeometry x="-6" y="168" width="60" height="135" as="geometry" />
        </mxCell>
        <mxCell id="arf171ekbPJKr-LLL3k8-23" value="container" style="html=1;overflow=block;blockSpacing=1;whiteSpace=wrap;fontSize=11.7;fontColor=#333333;align=right;spacing=3.8;verticalAlign=top;strokeOpacity=100;fillOpacity=100;fillColor=#ffffff;strokeWidth=2.3;lucidId=h8OsGK1Ffm4r;" vertex="1" parent="1">
          <mxGeometry x="-130" y="506.5" width="158" height="59" as="geometry" />
        </mxCell>
        <mxCell id="arf171ekbPJKr-LLL3k8-24" value="" style="html=1;overflow=block;blockSpacing=1;whiteSpace=wrap;shape=image;fontSize=13;spacing=0;strokeColor=none;strokeOpacity=100;strokeWidth=0;image=https://images.app.lucidchart.com/images/1f459688-9b0b-442f-a2e4-e77a2d87ded0/content;imageAspect=0;lucidId=o8OsdDrnvUc.;" vertex="1" parent="1">
          <mxGeometry x="-127" y="516" width="100" height="38" as="geometry" />
        </mxCell>
        <mxCell id="arf171ekbPJKr-LLL3k8-25" value="&#xa;Web interface" style="html=1;overflow=block;blockSpacing=1;align=center;whiteSpace=wrap;fontSize=13;fontStyle=1;spacing=0;strokeOpacity=100;fillOpacity=100;fillColor=#ffffff;strokeWidth=2.3;" vertex="1" parent="1">
          <mxGeometry x="-741" y="409" width="120" height="120" as="geometry" />
        </mxCell>
        <mxCell id="arf171ekbPJKr-LLL3k8-26" value="" style="html=1;jettySize=18;whiteSpace=wrap;fontSize=13;strokeOpacity=100;strokeWidth=2.3;rounded=1;arcSize=0;edgeStyle=orthogonalEdgeStyle;startArrow=none;endArrow=block;endFill=1;exitX=-0.007;exitY=0.526;exitPerimeter=0;entryX=1.009;entryY=0.5;entryPerimeter=0;lucidId=O8OsRKfLMVOg;" edge="1" parent="1" source="arf171ekbPJKr-LLL3k8-20" target="arf171ekbPJKr-LLL3k8-25">
          <mxGeometry width="100" height="100" relative="1" as="geometry">
            <Array as="points" />
          </mxGeometry>
        </mxCell>
        <mxCell id="arf171ekbPJKr-LLL3k8-27" value="Mongobooster" style="html=1;overflow=block;blockSpacing=1;align=center;whiteSpace=wrap;fontSize=13;fontStyle=1;spacing=0;strokeOpacity=100;fillOpacity=100;fillColor=#ffffff;strokeWidth=2.3;verticalAlign=bottom;" vertex="1" parent="1">
          <mxGeometry x="290" y="477" width="120" height="118" as="geometry" />
        </mxCell>
        <mxCell id="arf171ekbPJKr-LLL3k8-28" value="" style="html=1;jettySize=18;whiteSpace=wrap;fontSize=13;strokeOpacity=100;strokeWidth=2.3;rounded=1;arcSize=0;edgeStyle=orthogonalEdgeStyle;startArrow=none;endArrow=block;endFill=1;exitX=1;exitY=0.5;entryX=-0.009;entryY=0.5;entryPerimeter=0;lucidId=48Os1mffZyvQ;exitDx=0;exitDy=0;" edge="1" parent="1" source="arf171ekbPJKr-LLL3k8-23" target="arf171ekbPJKr-LLL3k8-27">
          <mxGeometry width="100" height="100" relative="1" as="geometry">
            <Array as="points" />
          </mxGeometry>
        </mxCell>
        <mxCell id="arf171ekbPJKr-LLL3k8-29" value="" style="html=1;overflow=block;blockSpacing=1;whiteSpace=wrap;shape=image;fontSize=13;spacing=0;strokeColor=none;strokeOpacity=100;strokeWidth=0;image=https://images.app.lucidchart.com/images/c4f0a037-eaa7-4c69-a787-3872b605da51/content;imageAspect=0;lucidId=N9Os92izhEdo;" vertex="1" parent="1">
          <mxGeometry x="309" y="482" width="82" height="75" as="geometry" />
        </mxCell>
        <mxCell id="arf171ekbPJKr-LLL3k8-30" value="" style="html=1;overflow=block;blockSpacing=1;whiteSpace=wrap;shape=image;fontSize=13;spacing=0;strokeColor=none;strokeOpacity=100;strokeWidth=0;image=https://images.app.lucidchart.com/images/7b588eef-c84f-4ed8-bd65-80b832fb49fd/content;imageAspect=0;lucidId=09Oso.JJnyDl;" vertex="1" parent="1">
          <mxGeometry x="-728" y="422" width="95" height="44" as="geometry" />
        </mxCell>
        <mxCell id="arf171ekbPJKr-LLL3k8-31" value="" style="html=1;overflow=block;blockSpacing=1;whiteSpace=wrap;shape=image;fontSize=13;spacing=0;strokeColor=none;strokeOpacity=100;strokeWidth=0;image=https://images.app.lucidchart.com/images/bfa62034-4141-4b36-b26c-5c9ec3dd72a1/content;imageAspect=0;lucidId=G_OsyK_6VpMu;" vertex="1" parent="1">
          <mxGeometry x="64" y="212" width="68" height="68" as="geometry" />
        </mxCell>
        <mxCell id="arf171ekbPJKr-LLL3k8-32" value="" style="html=1;jettySize=18;whiteSpace=wrap;fontSize=13;strokeOpacity=100;strokeWidth=2.3;rounded=1;arcSize=0;edgeStyle=orthogonalEdgeStyle;startArrow=none;endArrow=block;endFill=1;exitX=0.906;exitY=-0.003;exitPerimeter=0;entryX=0.486;entryY=0;entryPerimeter=0;lucidId=S_OsrM-VQwkT;" edge="1" parent="1" source="arf171ekbPJKr-LLL3k8-4" target="arf171ekbPJKr-LLL3k8-31">
          <mxGeometry width="100" height="100" relative="1" as="geometry">
            <Array as="points">
              <mxPoint x="90" y="380" />
              <mxPoint x="207" y="380" />
              <mxPoint x="207" y="69" />
              <mxPoint x="98" y="69" />
            </Array>
          </mxGeometry>
        </mxCell>
        <mxCell id="arf171ekbPJKr-LLL3k8-33" value="ssh" style="text;html=1;resizable=0;labelBackgroundColor=default;align=center;verticalAlign=middle;fontColor=#333333;fontSize=11.7;" vertex="1" parent="arf171ekbPJKr-LLL3k8-32">
          <mxGeometry x="-0.1046690056238051" relative="1" as="geometry" />
        </mxCell>
        <mxCell id="arf171ekbPJKr-LLL3k8-34" value="Terminal access" style="html=1;overflow=block;blockSpacing=1;whiteSpace=wrap;fontSize=11.7;fontColor=#333333;align=center;spacing=3.8;strokeOpacity=0;fillOpacity=0;fillColor=#ffffff;strokeWidth=2.3;lucidId=3_OsRgyrOZTw;" vertex="1" parent="1">
          <mxGeometry x="-68" y="123" width="180" height="45" as="geometry" />
        </mxCell>
        <mxCell id="arf171ekbPJKr-LLL3k8-35" value="" style="html=1;overflow=block;blockSpacing=1;whiteSpace=wrap;fontSize=13;align=right;spacing=3.8;verticalAlign=top;strokeOpacity=100;fillOpacity=100;fillColor=#ffffff;strokeWidth=2.3;lucidId=kvG7zU1Vbf7M;" vertex="1" parent="1">
          <mxGeometry x="-956.5" y="731" width="165" height="87" as="geometry" />
        </mxCell>
        <mxCell id="arf171ekbPJKr-LLL3k8-36" value="" style="html=1;overflow=block;blockSpacing=1;whiteSpace=wrap;shape=image;fontSize=13;spacing=0;strokeColor=none;strokeOpacity=100;strokeWidth=0;image=https://images.lucid.app/images/5f2dbfde-59ed-4124-9216-830f0c95cc7c/content;imageAspect=0;lucidId=yAG7tjvZQRl6;" vertex="1" parent="1">
          <mxGeometry x="-945.5" y="765" width="154" height="31" as="geometry" />
        </mxCell>
        <mxCell id="arf171ekbPJKr-LLL3k8-37" value="" style="html=1;jettySize=18;whiteSpace=wrap;fontSize=13;strokeOpacity=100;strokeWidth=2.3;rounded=1;arcSize=0;edgeStyle=orthogonalEdgeStyle;startArrow=block;startFill=1;endArrow=block;endFill=1;exitX=0;exitY=0.814;exitPerimeter=0;entryX=1;entryY=0.5;lucidId=7DG7rt3E.VyO;exitDx=0;exitDy=0;entryDx=0;entryDy=0;" edge="1" parent="1" source="arf171ekbPJKr-LLL3k8-4" target="arf171ekbPJKr-LLL3k8-1">
          <mxGeometry width="100" height="100" relative="1" as="geometry">
            <Array as="points" />
            <mxPoint x="-1.6069999999995161" y="818.403" as="sourcePoint" />
          </mxGeometry>
        </mxCell>
        <mxCell id="arf171ekbPJKr-LLL3k8-38" value="&#xa;Web interface" style="html=1;overflow=block;blockSpacing=1;align=center;whiteSpace=wrap;fontSize=13;fontStyle=1;spacing=0;strokeOpacity=100;fillOpacity=100;fillColor=#ffffff;strokeWidth=2.3;" vertex="1" parent="1">
          <mxGeometry x="-922" y="926" width="120" height="45" as="geometry" />
        </mxCell>
        <mxCell id="arf171ekbPJKr-LLL3k8-39" value="" style="html=1;jettySize=18;whiteSpace=wrap;fontSize=13;strokeOpacity=100;strokeWidth=2.3;rounded=1;arcSize=0;edgeStyle=orthogonalEdgeStyle;startArrow=none;endArrow=block;endFill=1;exitX=0.5;exitY=1.013;exitPerimeter=0;entryX=0.398;entryY=-0.025;entryPerimeter=0;lucidId=_FG7gH6jn6ZU;" edge="1" parent="1" source="arf171ekbPJKr-LLL3k8-35" target="arf171ekbPJKr-LLL3k8-38">
          <mxGeometry width="100" height="100" relative="1" as="geometry">
            <Array as="points" />
          </mxGeometry>
        </mxCell>
        <mxCell id="arf171ekbPJKr-LLL3k8-40" value="Admin" style="html=1;overflow=block;blockSpacing=1;shape=umlActor;labelPosition=center;verticalLabelPosition=bottom;verticalAlign=top;whiteSpace=nowrap;fontSize=11.7;fontColor=#333333;align=center;spacing=0;strokeOpacity=100;fillOpacity=100;fillColor=#d85656;strokeWidth=2.3;lucidId=XOG7.xyotTMy;" vertex="1" parent="1">
          <mxGeometry x="-785" y="926" width="60" height="135" as="geometry" />
        </mxCell>
        <mxCell id="arf171ekbPJKr-LLL3k8-41" style="edgeStyle=orthogonalEdgeStyle;rounded=0;orthogonalLoop=1;jettySize=auto;html=1;entryX=0;entryY=0.5;entryDx=0;entryDy=0;startArrow=classic;startFill=1;" edge="1" parent="1" source="arf171ekbPJKr-LLL3k8-46" target="arf171ekbPJKr-LLL3k8-23">
          <mxGeometry relative="1" as="geometry" />
        </mxCell>
        <mxCell id="arf171ekbPJKr-LLL3k8-42" style="edgeStyle=orthogonalEdgeStyle;rounded=0;orthogonalLoop=1;jettySize=auto;html=1;entryX=0.5;entryY=0;entryDx=0;entryDy=0;dashed=1;" edge="1" parent="1" source="arf171ekbPJKr-LLL3k8-46" target="arf171ekbPJKr-LLL3k8-54">
          <mxGeometry relative="1" as="geometry">
            <Array as="points">
              <mxPoint x="-350" y="880" />
              <mxPoint x="-259" y="880" />
            </Array>
          </mxGeometry>
        </mxCell>
        <mxCell id="arf171ekbPJKr-LLL3k8-43" value="Modbus" style="edgeLabel;html=1;align=center;verticalAlign=middle;resizable=0;points=[];" vertex="1" connectable="0" parent="arf171ekbPJKr-LLL3k8-42">
          <mxGeometry x="0.569" relative="1" as="geometry">
            <mxPoint as="offset" />
          </mxGeometry>
        </mxCell>
        <mxCell id="arf171ekbPJKr-LLL3k8-44" style="edgeStyle=orthogonalEdgeStyle;rounded=0;orthogonalLoop=1;jettySize=auto;html=1;entryX=0.579;entryY=1.017;entryDx=0;entryDy=0;entryPerimeter=0;startArrow=classic;startFill=1;" edge="1" parent="1" source="arf171ekbPJKr-LLL3k8-46" target="arf171ekbPJKr-LLL3k8-58">
          <mxGeometry relative="1" as="geometry" />
        </mxCell>
        <mxCell id="arf171ekbPJKr-LLL3k8-45" value="GET&lt;br style=&quot;border-color: var(--border-color); font-size: 7px;&quot;&gt;&lt;span style=&quot;font-size: 7px;&quot;&gt;информация&lt;/span&gt;&lt;br style=&quot;border-color: var(--border-color); font-size: 7px;&quot;&gt;&lt;span style=&quot;font-size: 7px;&quot;&gt;о снижении&lt;/span&gt;" style="edgeLabel;html=1;align=center;verticalAlign=middle;resizable=0;points=[];fontSize=7;" vertex="1" connectable="0" parent="arf171ekbPJKr-LLL3k8-44">
          <mxGeometry x="0.7898" y="-1" relative="1" as="geometry">
            <mxPoint x="-1" y="63" as="offset" />
          </mxGeometry>
        </mxCell>
        <mxCell id="arf171ekbPJKr-LLL3k8-46" value="container" style="html=1;overflow=block;blockSpacing=1;whiteSpace=wrap;fontSize=11.7;fontColor=#333333;align=right;spacing=3.8;verticalAlign=top;strokeOpacity=100;fillOpacity=100;fillColor=#ffffff;strokeWidth=2.3;lucidId=MUG7.P1o7qeu;" vertex="1" parent="1">
          <mxGeometry x="-357" y="448" width="165" height="92" as="geometry" />
        </mxCell>
        <mxCell id="arf171ekbPJKr-LLL3k8-47" value="&lt;b&gt;AMIGO Backend + конфигурация&lt;/b&gt;&lt;br&gt;&lt;br&gt;http://192.168.10.6/amigo&lt;br&gt;/amigo_main" style="html=1;overflow=block;blockSpacing=1;whiteSpace=wrap;fontSize=11.7;fontColor=default;align=center;spacing=0;fillColor=#ffffff;strokeWidth=1.5;strokeColor=none;lucidId=6VG7kUK1dpaE;" vertex="1" parent="1">
          <mxGeometry x="-344" y="466" width="139" height="31" as="geometry" />
        </mxCell>
        <mxCell id="arf171ekbPJKr-LLL3k8-48" style="edgeStyle=orthogonalEdgeStyle;rounded=0;orthogonalLoop=1;jettySize=auto;html=1;entryX=0.001;entryY=0.844;entryDx=0;entryDy=0;exitX=0.5;exitY=0;exitDx=0;exitDy=0;startArrow=classic;startFill=1;entryPerimeter=0;" edge="1" parent="1" source="arf171ekbPJKr-LLL3k8-50" target="arf171ekbPJKr-LLL3k8-46">
          <mxGeometry relative="1" as="geometry" />
        </mxCell>
        <mxCell id="arf171ekbPJKr-LLL3k8-49" value="API" style="edgeLabel;html=1;align=center;verticalAlign=middle;resizable=0;points=[];" vertex="1" connectable="0" parent="arf171ekbPJKr-LLL3k8-48">
          <mxGeometry x="0.237" y="-1" relative="1" as="geometry">
            <mxPoint as="offset" />
          </mxGeometry>
        </mxCell>
        <mxCell id="arf171ekbPJKr-LLL3k8-50" value="container&lt;br&gt;&lt;div style=&quot;text-align: center;&quot;&gt;&lt;b&gt;amigo-analysis&lt;/b&gt;&lt;/div&gt;&lt;div style=&quot;text-align: center;&quot;&gt;&lt;b&gt;&lt;br&gt;&lt;/b&gt;&lt;/div&gt;&lt;div style=&quot;text-align: center;&quot;&gt;http://192.168.10.6/amigo&lt;/div&gt;&lt;div style=&quot;text-align: center;&quot;&gt;/amigo-analysis&lt;br&gt;&lt;/div&gt;" style="html=1;overflow=block;blockSpacing=1;whiteSpace=wrap;fontSize=11.7;fontColor=#333333;align=right;spacing=3.8;verticalAlign=top;strokeOpacity=100;fillOpacity=100;fillColor=#ffffff;strokeWidth=2.3;lucidId=.ZNsZsHuAFoC;" vertex="1" parent="1">
          <mxGeometry x="-546" y="585" width="165" height="84" as="geometry" />
        </mxCell>
        <mxCell id="arf171ekbPJKr-LLL3k8-51" style="edgeStyle=orthogonalEdgeStyle;rounded=0;orthogonalLoop=1;jettySize=auto;html=1;entryX=0.434;entryY=0.995;entryDx=0;entryDy=0;entryPerimeter=0;exitX=0.275;exitY=-0.013;exitDx=0;exitDy=0;startArrow=classic;startFill=1;exitPerimeter=0;" edge="1" parent="1" source="arf171ekbPJKr-LLL3k8-53" target="arf171ekbPJKr-LLL3k8-46">
          <mxGeometry relative="1" as="geometry">
            <Array as="points">
              <mxPoint x="-285" y="710" />
              <mxPoint x="-285" y="710" />
              <mxPoint x="-285" y="629" />
              <mxPoint x="-285" y="629" />
            </Array>
          </mxGeometry>
        </mxCell>
        <mxCell id="arf171ekbPJKr-LLL3k8-52" value="Modbus" style="edgeLabel;html=1;align=center;verticalAlign=middle;resizable=0;points=[];" vertex="1" connectable="0" parent="arf171ekbPJKr-LLL3k8-51">
          <mxGeometry x="-0.5015" relative="1" as="geometry">
            <mxPoint x="-5" y="-24" as="offset" />
          </mxGeometry>
        </mxCell>
        <mxCell id="arf171ekbPJKr-LLL3k8-53" value="container&lt;br&gt;&lt;div style=&quot;text-align: center;&quot;&gt;&lt;b&gt;amigo-simulator&lt;/b&gt;&lt;/div&gt;&lt;div style=&quot;text-align: center;&quot;&gt;&lt;b&gt;&lt;br&gt;&lt;/b&gt;&lt;/div&gt;&lt;div style=&quot;text-align: center;&quot;&gt;http://192.168.10.6/amigo/&lt;/div&gt;&lt;div style=&quot;text-align: center;&quot;&gt;amigo-simulator&lt;br&gt;&lt;/div&gt;" style="html=1;overflow=block;blockSpacing=1;whiteSpace=wrap;fontSize=11.7;fontColor=#333333;align=right;spacing=3.8;verticalAlign=top;strokeOpacity=100;fillOpacity=100;fillColor=#ffffff;strokeWidth=2.3;lucidId=.ZNsZsHuAFoC;" vertex="1" parent="1">
          <mxGeometry x="-330" y="718" width="165" height="84" as="geometry" />
        </mxCell>
        <mxCell id="arf171ekbPJKr-LLL3k8-54" value="Оборудование" style="html=1;overflow=block;blockSpacing=1;align=center;whiteSpace=wrap;fontSize=13;fontStyle=1;spacing=0;strokeOpacity=100;fillOpacity=100;fillColor=#ffffff;strokeWidth=2.3;dashed=1;" vertex="1" parent="1">
          <mxGeometry x="-319.5" y="924" width="120" height="74" as="geometry" />
        </mxCell>
        <mxCell id="arf171ekbPJKr-LLL3k8-55" value="При ПНР, происходит отключение контейнера amigo-simulator и осуществляется подключение реальных сигналов" style="text;html=1;strokeColor=none;fillColor=none;align=center;verticalAlign=middle;whiteSpace=wrap;rounded=0;" vertex="1" parent="1">
          <mxGeometry x="-192" y="941" width="170" height="30" as="geometry" />
        </mxCell>
        <mxCell id="arf171ekbPJKr-LLL3k8-56" style="edgeStyle=orthogonalEdgeStyle;rounded=0;orthogonalLoop=1;jettySize=auto;html=1;entryX=0.25;entryY=0;entryDx=0;entryDy=0;exitX=0.341;exitY=0.995;exitDx=0;exitDy=0;exitPerimeter=0;startArrow=classic;startFill=1;" edge="1" parent="1" source="arf171ekbPJKr-LLL3k8-58" target="arf171ekbPJKr-LLL3k8-46">
          <mxGeometry relative="1" as="geometry" />
        </mxCell>
        <mxCell id="arf171ekbPJKr-LLL3k8-57" value="POST&amp;nbsp;&lt;br style=&quot;font-size: 7px;&quot;&gt;данные по &lt;br style=&quot;font-size: 7px;&quot;&gt;потреблению" style="edgeLabel;html=1;align=center;verticalAlign=middle;resizable=0;points=[];fontSize=7;" vertex="1" connectable="0" parent="arf171ekbPJKr-LLL3k8-56">
          <mxGeometry x="-0.7193" y="1" relative="1" as="geometry">
            <mxPoint x="-5" y="59" as="offset" />
          </mxGeometry>
        </mxCell>
        <mxCell id="arf171ekbPJKr-LLL3k8-58" value="&lt;b&gt;API Amigo&amp;nbsp; Aggregaror&lt;br&gt;&lt;/b&gt;Тест -http://192.168.10.64/api/&lt;br&gt;Прод - https://amigo-aggregator.rtsoft.ru/api/" style="html=1;overflow=block;blockSpacing=1;whiteSpace=wrap;fontSize=11.7;fontColor=#333333;align=right;spacing=3.8;verticalAlign=top;strokeOpacity=100;fillOpacity=100;fillColor=#ffffff;strokeWidth=2.3;lucidId=h8OsGK1Ffm4r;" vertex="1" parent="1">
          <mxGeometry x="-370" y="230" width="165" height="59" as="geometry" />
        </mxCell>
        <mxCell id="arf171ekbPJKr-LLL3k8-59" value="Сбор данных о потреблении&lt;br style=&quot;font-size: 7px;&quot;&gt;Формирование макетов 80020" style="html=1;overflow=block;blockSpacing=1;whiteSpace=wrap;fontSize=7;fontColor=#333333;align=center;spacing=3.8;strokeOpacity=0;fillOpacity=0;fillColor=#ffffff;strokeWidth=2.3;lucidId=3_OsRgyrOZTw;" vertex="1" parent="1">
          <mxGeometry x="-205" y="244.25" width="122" height="18.5" as="geometry" />
        </mxCell>
      </root>
    </mxGraphModel>
  </diagram>
</mxfile>
